<svg width="172" height="90" viewBox="0 0 172 90" fill="none" xmlns="http://www.w3.org/2000/svg">
<g clip-path="url(#clip0_137_64)">
<path d="M171.946 47.1309V89.9875H147.711V56.5796L135.404 44.8313L123.205 56.5296V89.9875H98.9164V56.5296C98.9486 55.0166 98.6564 53.5127 98.0564 52.1044C97.4564 50.6961 96.5605 49.4113 95.4204 48.324C94.2803 47.2367 92.9184 46.3683 91.4132 45.7688C89.908 45.1694 88.2892 44.8508 86.65 44.8313H74.0181V22.6718H49.8509V44.7813H36.5555C34.9429 44.7631 33.3423 45.0406 31.8467 45.5977C30.3511 46.1549 28.9902 46.9805 27.8429 48.0269C26.6956 49.0732 25.7847 50.3194 25.163 51.6931C24.5414 53.0669 24.2213 54.5409 24.2215 56.0297C24.25 59.0356 25.5607 61.9099 27.8696 64.0296C30.1784 66.1492 33.2993 67.3434 36.5555 67.3531H49.8915V44.7813H74.0181V89.9875H36.5555C26.8254 89.9379 17.5135 86.329 10.6611 79.9518C3.80867 73.5746 -0.0251119 64.9495 0.000123799 55.9672C0.00535802 51.55 0.956644 47.1773 2.79926 43.1008C4.64187 39.0242 7.33945 35.3242 10.7368 32.2135C14.1342 29.1029 18.1642 26.643 22.5952 24.9755C27.0262 23.3079 31.7706 22.4656 36.5555 22.4969H49.6072V0H74.3159V22.4969H86.65C91.7293 22.5011 96.751 23.4901 101.39 25.3998C106.029 27.3095 110.182 30.0974 113.579 33.5828L135.472 13.3856L171.946 47.1309Z" fill="#3856DA"/>
</g>
<defs>
<clipPath id="clip0_137_64">
<rect width="172" height="90" fill="white"/>
</clipPath>
</defs>
</svg>
