<?xml version="1.0" standalone="no"?>
<!DOCTYPE svg PUBLIC "-//W3C//DTD SVG 20010904//EN"
 "http://www.w3.org/TR/2001/REC-SVG-20010904/DTD/svg10.dtd">
<svg version="1.0" xmlns="http://www.w3.org/2000/svg"
 width="598.000000pt" height="598.000000pt" viewBox="0 0 598.000000 598.000000"
 preserveAspectRatio="xMidYMid meet">
<metadata>
Created by potrace 1.14, written by Peter Selinger 2001-2017
</metadata>
<g transform="translate(0.000000,598.000000) scale(0.100000,-0.100000)"
fill="#000000" stroke="none">
<path d="M2888 3831 c-98 -32 -153 -75 -200 -161 -66 -118 -71 -324 -13 -464
33 -78 83 -142 191 -246 244 -234 279 -282 293 -399 8 -71 -7 -123 -46 -157
-45 -39 -134 -35 -179 7 -27 25 -34 54 -38 155 -1 39 -6 75 -9 81 -11 18 -233
15 -251 -3 -31 -30 -4 -251 41 -338 23 -44 93 -116 135 -137 124 -63 340 -61
454 6 49 29 106 90 132 142 50 100 61 273 23 399 -29 102 -64 148 -245 328
-183 184 -228 241 -247 310 -14 50 -13 133 1 170 24 63 93 90 164 65 50 -18
75 -63 79 -147 2 -34 7 -65 11 -69 4 -4 61 -8 127 -8 135 0 140 3 133 69 -2
23 -7 66 -10 96 -13 126 -113 256 -225 295 -77 27 -245 30 -321 6z"/>
<path d="M3796 3813 c-9 -30 -24 -106 -31 -153 -5 -37 -72 -444 -91 -555 -3
-16 -14 -86 -25 -155 -21 -141 -27 -176 -34 -205 -2 -11 -7 -42 -10 -70 -4
-27 -8 -57 -10 -65 -3 -8 -7 -33 -10 -55 -3 -22 -8 -51 -11 -65 -3 -14 -8 -38
-10 -55 -2 -16 -10 -70 -19 -120 -27 -162 -27 -164 0 -171 27 -7 221 -2 228 6
4 4 24 113 41 225 7 51 17 65 45 66 107 4 274 0 281 -7 9 -10 10 -13 35 -168
9 -55 20 -105 26 -112 7 -9 48 -13 135 -13 104 0 126 3 131 16 5 13 -3 85 -22
193 -6 39 -36 212 -40 240 -2 14 -15 93 -29 175 -13 83 -27 168 -30 190 -4 22
-8 47 -11 55 -2 8 -6 35 -9 60 -3 25 -8 56 -11 70 -7 38 -95 580 -101 618 -10
74 -3 72 -219 72 -176 0 -194 -2 -199 -17z m218 -513 c8 -52 18 -113 21 -135
3 -22 7 -51 10 -65 2 -14 7 -43 10 -65 3 -22 12 -78 20 -125 24 -146 29 -207
15 -215 -20 -12 -198 -10 -213 3 -11 10 -11 24 -1 84 7 40 15 93 19 118 3 25
8 56 10 70 2 14 7 45 10 70 3 25 8 56 10 70 6 35 13 77 20 130 7 56 25 150 31
170 9 27 21 -8 38 -110z"/>
<path d="M4467 3817 c-2 -7 -1 -37 4 -67 5 -30 11 -71 14 -90 3 -19 14 -89 25
-155 10 -66 22 -140 25 -165 4 -25 10 -63 15 -85 5 -22 11 -62 14 -90 4 -27
11 -72 16 -100 5 -27 11 -66 14 -85 9 -63 16 -115 20 -135 2 -11 7 -40 11 -65
3 -25 9 -58 11 -75 30 -183 46 -286 49 -315 3 -19 7 -44 9 -55 3 -11 8 -42 12
-70 3 -27 11 -66 18 -85 l11 -35 198 -2 198 -2 9 23 c5 13 13 57 19 97 6 41
13 88 16 104 3 17 10 59 15 95 6 36 15 90 20 120 5 30 12 75 15 100 3 25 10
68 15 95 5 28 12 70 15 95 3 25 8 52 10 60 4 14 7 34 20 128 4 20 12 78 20
127 58 360 95 603 95 622 0 23 -2 23 -120 23 -144 0 -135 8 -155 -140 -3 -25
-15 -99 -25 -165 -10 -66 -22 -140 -25 -165 -3 -25 -12 -85 -20 -135 -8 -49
-16 -108 -20 -130 -3 -22 -8 -53 -10 -70 -6 -35 -4 -24 -40 -267 -18 -120 -33
-188 -40 -188 -6 0 -12 6 -12 13 0 6 -3 26 -6 42 -10 51 -17 91 -22 131 -12
93 -14 107 -19 132 -3 15 -8 47 -11 72 -3 25 -10 70 -15 100 -8 50 -14 92 -25
167 -2 15 -6 42 -9 58 -3 17 -7 44 -10 60 -2 17 -9 62 -15 100 -6 39 -13 84
-15 100 -10 75 -27 185 -37 233 l-10 52 -134 0 c-99 0 -134 -3 -138 -13z"/>
<path d="M5527 3816 c-7 -19 -8 -1627 0 -1654 5 -19 13 -20 134 -21 90 0 131
3 136 12 11 17 12 1638 1 1660 -8 15 -25 17 -137 17 -102 0 -130 -3 -134 -14z"/>
<path d="M186 3797 c-36 -26 -24 -86 16 -82 13 1 25 3 27 4 7 2 -22 31 -32 31
-6 0 -2 -6 9 -14 18 -14 18 -15 -3 -13 -24 1 -38 22 -22 32 5 4 7 11 3 16 -3
6 2 17 12 24 11 8 16 15 13 15 -3 0 -13 -6 -23 -13z"/>
<path d="M219 3803 c0 -5 -2 -16 -4 -25 -2 -10 2 -21 7 -25 6 -3 8 -1 4 5 -3
5 0 13 6 15 10 4 10 6 1 6 -7 1 -10 8 -7 16 4 8 3 15 0 15 -3 0 -6 -3 -7 -7z"/>
<path d="M273 3795 c1 -5 -4 -9 -10 -7 -7 1 -13 -2 -13 -8 0 -15 9 -12 37 9
22 18 22 20 4 18 -11 0 -19 -6 -18 -12z"/>
<path d="M350 3805 c0 -7 30 -13 34 -7 3 4 -4 9 -15 9 -10 1 -19 0 -19 -2z"/>
<path d="M513 3795 c1 -5 -4 -9 -10 -7 -7 1 -13 -2 -13 -8 0 -15 9 -12 37 9
22 18 22 20 4 18 -11 0 -19 -6 -18 -12z"/>
<path d="M590 3805 c0 -7 30 -13 34 -7 3 4 -4 9 -15 9 -10 1 -19 0 -19 -2z"/>
<path d="M673 3795 c1 -5 -4 -9 -10 -7 -7 1 -13 -2 -13 -8 0 -15 9 -12 37 9
22 18 22 20 4 18 -11 0 -19 -6 -18 -12z"/>
<path d="M750 3805 c0 -7 30 -13 34 -7 3 4 -4 9 -15 9 -10 1 -19 0 -19 -2z"/>
<path d="M913 3795 c1 -5 -4 -9 -10 -7 -7 1 -13 -2 -13 -8 0 -15 9 -12 37 9
22 18 22 20 4 18 -11 0 -19 -6 -18 -12z"/>
<path d="M990 3805 c0 -7 30 -13 34 -7 3 4 -4 9 -15 9 -10 1 -19 0 -19 -2z"/>
<path d="M1153 3795 c1 -5 -4 -9 -10 -7 -7 1 -13 -2 -13 -8 0 -15 9 -12 37 9
22 18 22 20 4 18 -11 0 -19 -6 -18 -12z"/>
<path d="M1230 3805 c0 -7 30 -13 34 -7 3 4 -4 9 -15 9 -10 1 -19 0 -19 -2z"/>
<path d="M1313 3795 c1 -5 -4 -9 -10 -7 -7 1 -13 -2 -13 -8 0 -15 9 -12 37 9
22 18 22 20 4 18 -11 0 -19 -6 -18 -12z"/>
<path d="M1390 3805 c0 -7 30 -13 34 -7 3 4 -4 9 -15 9 -10 1 -19 0 -19 -2z"/>
<path d="M1553 3795 c1 -5 -4 -9 -10 -7 -7 1 -13 -2 -13 -8 0 -15 9 -12 37 9
22 18 22 20 4 18 -11 0 -19 -6 -18 -12z"/>
<path d="M1630 3805 c0 -7 30 -13 34 -7 3 4 -4 9 -15 9 -10 1 -19 0 -19 -2z"/>
<path d="M1793 3795 c1 -5 -4 -9 -10 -7 -7 1 -13 -2 -13 -8 0 -15 9 -12 37 9
22 18 22 20 4 18 -11 0 -19 -6 -18 -12z"/>
<path d="M1853 3794 c-9 -23 2 -37 29 -38 15 -1 24 2 21 7 -3 5 -14 7 -24 4
-14 -4 -19 0 -19 15 0 10 4 17 9 13 5 -3 12 -2 15 3 3 5 -2 9 -10 9 -9 0 -18
-6 -21 -13z"/>
<path d="M395 3790 c-3 -5 -1 -10 4 -10 6 0 11 5 11 10 0 6 -2 10 -4 10 -3 0
-8 -4 -11 -10z"/>
<path d="M436 3783 c-6 -14 -5 -15 5 -6 7 7 10 15 7 18 -3 3 -9 -2 -12 -12z"/>
<path d="M795 3790 c-3 -5 -1 -10 4 -10 6 0 11 5 11 10 0 6 -2 10 -4 10 -3 0
-8 -4 -11 -10z"/>
<path d="M836 3783 c-6 -14 -5 -15 5 -6 7 7 10 15 7 18 -3 3 -9 -2 -12 -12z"/>
<path d="M1035 3790 c-3 -5 -1 -10 4 -10 6 0 11 5 11 10 0 6 -2 10 -4 10 -3 0
-8 -4 -11 -10z"/>
<path d="M1076 3783 c-6 -14 -5 -15 5 -6 7 7 10 15 7 18 -3 3 -9 -2 -12 -12z"/>
<path d="M1435 3790 c-3 -5 -1 -10 4 -10 6 0 11 5 11 10 0 6 -2 10 -4 10 -3 0
-8 -4 -11 -10z"/>
<path d="M1476 3783 c-6 -14 -5 -15 5 -6 7 7 10 15 7 18 -3 3 -9 -2 -12 -12z"/>
<path d="M1675 3790 c-3 -5 -1 -10 4 -10 6 0 11 5 11 10 0 6 -2 10 -4 10 -3 0
-8 -4 -11 -10z"/>
<path d="M1716 3783 c-6 -14 -5 -15 5 -6 7 7 10 15 7 18 -3 3 -9 -2 -12 -12z"/>
<path d="M1895 3790 c-4 -6 1 -7 11 -3 10 4 15 2 11 -4 -3 -5 0 -10 8 -10 11
0 12 4 4 14 -14 15 -26 17 -34 3z"/>
<path d="M300 3777 c0 -9 -5 -16 -12 -14 -6 1 -13 -11 -14 -28 -2 -20 0 -25 5
-16 5 8 7 21 3 29 -3 10 -1 13 6 8 13 -8 29 20 18 31 -3 4 -6 -1 -6 -10z"/>
<path d="M340 3786 c0 -2 7 -7 16 -10 8 -3 12 -2 9 4 -6 10 -25 14 -25 6z"/>
<path d="M540 3776 c0 -9 -4 -15 -9 -11 -6 3 -15 -4 -21 -15 -7 -13 -7 -20 0
-20 5 0 10 7 10 16 0 8 5 12 10 9 11 -7 26 22 16 32 -3 4 -6 -1 -6 -11z"/>
<path d="M700 3776 c0 -9 -5 -14 -10 -11 -15 9 -23 -21 -11 -42 9 -15 10 -13
5 11 -5 21 -4 27 5 22 12 -8 28 21 17 31 -3 4 -6 -1 -6 -11z"/>
<path d="M740 3786 c0 -2 7 -7 16 -10 8 -3 12 -2 9 4 -6 10 -25 14 -25 6z"/>
<path d="M940 3776 c0 -9 -4 -14 -10 -11 -5 3 -15 -4 -21 -17 -6 -13 -19 -25
-30 -25 -12 -1 -17 3 -13 9 4 7 2 8 -5 4 -17 -11 -4 -25 20 -23 12 1 26 12 32
24 5 12 14 20 19 17 10 -6 23 24 14 33 -3 4 -6 -1 -6 -11z"/>
<path d="M980 3786 c0 -2 7 -7 16 -10 8 -3 12 -2 9 4 -6 10 -25 14 -25 6z"/>
<path d="M1180 3776 c0 -9 -4 -15 -9 -11 -6 3 -15 -4 -21 -15 -7 -13 -7 -20 0
-20 5 0 10 7 10 16 0 8 5 12 10 9 11 -7 26 22 16 32 -3 4 -6 -1 -6 -11z"/>
<path d="M1340 3776 c0 -9 -5 -14 -10 -11 -15 9 -23 -21 -11 -42 9 -15 10 -13
5 11 -5 21 -4 27 5 22 12 -8 28 21 17 31 -3 4 -6 -1 -6 -11z"/>
<path d="M1380 3786 c0 -2 7 -7 16 -10 8 -3 12 -2 9 4 -6 10 -25 14 -25 6z"/>
<path d="M1580 3776 c0 -9 -4 -14 -10 -11 -5 3 -15 -4 -21 -17 -6 -13 -19 -25
-30 -25 -12 -1 -17 3 -13 9 4 7 2 8 -5 4 -17 -11 -4 -25 20 -23 12 1 26 12 32
24 5 12 14 20 19 17 10 -6 23 24 14 33 -3 4 -6 -1 -6 -11z"/>
<path d="M1620 3786 c0 -2 7 -7 16 -10 8 -3 12 -2 9 4 -6 10 -25 14 -25 6z"/>
<path d="M1820 3776 c0 -9 -4 -15 -9 -11 -15 9 -23 -13 -11 -32 9 -15 10 -14
4 6 -4 16 -3 21 5 17 12 -8 28 21 17 31 -3 4 -6 -1 -6 -11z"/>
<path d="M455 3771 c-3 -5 0 -13 6 -17 7 -4 9 -3 5 4 -3 5 0 13 6 15 9 4 10 6
1 6 -6 1 -14 -3 -18 -8z"/>
<path d="M855 3771 c-3 -5 0 -13 6 -17 7 -4 9 -3 5 4 -3 5 0 13 6 15 9 4 10 6
1 6 -6 1 -14 -3 -18 -8z"/>
<path d="M1095 3771 c-3 -5 0 -13 6 -17 7 -4 9 -3 5 4 -3 5 0 13 6 15 9 4 10
6 1 6 -6 1 -14 -3 -18 -8z"/>
<path d="M1495 3771 c-3 -5 0 -13 6 -17 7 -4 9 -3 5 4 -3 5 0 13 6 15 9 4 10
6 1 6 -6 1 -14 -3 -18 -8z"/>
<path d="M1735 3771 c-3 -5 0 -13 6 -17 7 -4 9 -3 5 4 -3 5 0 13 6 15 9 4 10
6 1 6 -6 1 -14 -3 -18 -8z"/>
<path d="M334 3755 c-4 -8 -11 -12 -17 -8 -6 3 -7 1 -3 -5 11 -18 23 -14 29 8
6 23 -1 27 -9 5z"/>
<path d="M379 3767 c-6 -20 -5 -36 2 -31 5 3 7 9 4 14 -3 5 3 8 14 7 12 -1 19
-8 18 -19 -1 -11 -7 -16 -14 -14 -7 3 -13 1 -13 -5 0 -6 8 -9 17 -7 27 5 23
50 -4 54 -13 2 -23 3 -24 1z"/>
<path d="M574 3759 c-2 -4 -2 -13 1 -21 4 -9 -2 -14 -16 -15 -18 -2 -19 0 -7
15 12 15 11 16 -4 3 -22 -17 -14 -32 15 -27 16 2 21 10 20 25 -2 12 1 20 5 17
4 -2 14 -1 22 4 11 7 9 9 -8 7 -13 -1 -25 -4 -28 -8z"/>
<path d="M734 3755 c-4 -8 -10 -12 -15 -9 -5 3 -6 -2 -3 -11 7 -18 7 -18 23
13 6 12 9 22 6 22 -3 0 -8 -7 -11 -15z"/>
<path d="M776 3762 c-2 -4 4 -18 15 -31 10 -13 19 -20 19 -15 0 4 -7 15 -16
25 -15 17 -15 18 5 16 12 -1 21 -7 21 -14 0 -16 16 -17 26 -1 4 6 3 8 -4 4 -5
-3 -12 -1 -14 6 -5 13 -45 21 -52 10z"/>
<path d="M975 3759 c-4 -6 -5 -12 -2 -15 2 -3 7 2 10 11 7 17 1 20 -8 4z"/>
<path d="M1017 3764 c-8 -9 3 -34 15 -34 6 0 6 6 -2 14 -9 12 -8 15 10 13 15
-1 20 -7 18 -22 -2 -15 3 -20 21 -20 14 0 26 7 28 15 3 9 1 11 -4 5 -16 -20
-40 -16 -39 6 1 15 -6 23 -20 25 -12 2 -24 1 -27 -2z"/>
<path d="M1214 3759 c-2 -4 -2 -13 1 -21 4 -9 -2 -14 -16 -15 -18 -2 -19 0 -7
15 12 15 11 16 -4 3 -22 -17 -14 -32 15 -27 16 2 21 10 20 25 -2 12 1 20 5 17
4 -2 14 -1 22 4 11 7 9 9 -8 7 -13 -1 -25 -4 -28 -8z"/>
<path d="M1374 3755 c-4 -8 -10 -12 -15 -9 -5 3 -6 -2 -3 -11 7 -18 7 -18 23
13 6 12 9 22 6 22 -3 0 -8 -7 -11 -15z"/>
<path d="M1416 3762 c-2 -4 4 -18 15 -31 10 -13 19 -20 19 -15 0 4 -7 15 -16
25 -15 17 -15 18 5 16 12 -1 21 -7 21 -14 0 -16 16 -17 26 -1 4 6 3 8 -4 4 -5
-3 -12 -1 -14 6 -5 13 -45 21 -52 10z"/>
<path d="M1615 3759 c-4 -6 -5 -12 -2 -15 2 -3 7 2 10 11 7 17 1 20 -8 4z"/>
<path d="M1657 3764 c-8 -9 3 -34 15 -34 6 0 6 6 -2 14 -9 12 -8 15 10 13 15
-1 20 -7 18 -22 -2 -15 3 -20 21 -20 14 0 26 7 28 15 3 9 1 11 -4 5 -16 -20
-40 -16 -39 6 1 15 -6 23 -20 25 -12 2 -24 1 -27 -2z"/>
<path d="M240 3745 c0 -8 4 -15 10 -15 5 0 7 7 4 15 -4 8 -8 15 -10 15 -2 0
-4 -7 -4 -15z"/>
<path d="M1912 3744 c-7 -8 -8 -14 -3 -14 10 0 25 19 20 25 -2 1 -10 -3 -17
-11z"/>
<path d="M440 3740 c0 -5 5 -10 11 -10 5 0 7 5 4 10 -3 6 -8 10 -11 10 -2 0
-4 -4 -4 -10z"/>
<path d="M610 3736 c0 -20 17 -29 26 -15 5 8 3 9 -6 4 -10 -6 -12 -4 -7 8 3
10 2 17 -3 17 -6 0 -10 -6 -10 -14z"/>
<path d="M753 3737 c1 -10 7 -18 12 -17 6 1 13 -9 17 -22 7 -22 7 -22 5 2 -1
14 -6 24 -12 22 -5 -2 -13 5 -17 15 -7 17 -8 17 -5 0z"/>
<path d="M990 3745 c0 -5 5 -17 10 -25 5 -8 10 -10 10 -5 0 6 -5 17 -10 25 -5
8 -10 11 -10 5z"/>
<path d="M1250 3736 c0 -20 17 -29 26 -15 5 8 3 9 -6 4 -10 -6 -12 -4 -7 8 3
10 2 17 -3 17 -6 0 -10 -6 -10 -14z"/>
<path d="M1393 3737 c1 -10 7 -18 12 -17 6 1 13 -9 17 -22 7 -22 7 -22 5 2 -1
14 -6 24 -12 22 -5 -2 -13 5 -17 15 -7 17 -8 17 -5 0z"/>
<path d="M1630 3745 c0 -5 5 -17 10 -25 5 -8 10 -10 10 -5 0 6 -5 17 -10 25
-5 8 -10 11 -10 5z"/>
<path d="M1832 3733 c2 -10 10 -17 17 -15 9 2 11 -3 8 -13 -4 -8 -2 -15 4 -15
6 0 9 8 7 18 -2 9 -10 16 -17 14 -9 -2 -11 3 -8 13 4 8 2 15 -4 15 -6 0 -9 -8
-7 -17z"/>
<path d="M1876 3742 c-2 -4 -1 -14 4 -22 7 -11 9 -9 7 8 -1 24 -3 26 -11 14z"/>
<path d="M934 3729 c3 -15 36 -21 36 -7 0 6 -6 8 -14 5 -8 -3 -17 -2 -20 4 -2
5 -3 4 -2 -2z"/>
<path d="M1574 3729 c3 -15 36 -21 36 -7 0 6 -6 8 -14 5 -8 -3 -17 -2 -20 4
-2 5 -3 4 -2 -2z"/>
<path d="M296 3722 c-3 -5 -4 -17 -2 -28 3 -21 28 -26 32 -6 1 7 0 8 -3 2 -8
-17 -19 -11 -20 10 -1 13 2 18 9 14 7 -4 8 -2 4 4 -8 14 -13 15 -20 4z"/>
<path d="M470 3720 c0 -5 5 -10 10 -10 6 0 10 5 10 10 0 6 -4 10 -10 10 -5 0
-10 -4 -10 -10z"/>
<path d="M653 3723 c4 -6 0 -13 -8 -17 -8 -3 -15 -11 -14 -18 0 -10 2 -10 6 0
2 6 9 12 14 12 5 0 8 -6 7 -12 -2 -8 7 -13 22 -13 16 0 24 5 22 14 -2 8 3 11
11 8 8 -3 20 -1 28 4 9 5 4 7 -16 5 -17 -1 -29 -8 -27 -14 1 -7 -7 -12 -17
-12 -14 0 -19 6 -16 20 2 11 -1 23 -7 26 -6 4 -8 3 -5 -3z"/>
<path d="M1116 3713 c-6 -14 -5 -15 5 -6 7 7 10 15 7 18 -3 3 -9 -2 -12 -12z"/>
<path d="M1293 3723 c4 -6 0 -13 -8 -17 -8 -3 -15 -11 -14 -18 0 -10 2 -10 6
0 2 6 9 12 14 12 5 0 8 -6 7 -12 -2 -8 7 -13 22 -13 16 0 24 5 22 14 -2 8 3
11 11 8 8 -3 20 -1 28 4 9 5 4 7 -16 5 -17 -1 -29 -8 -27 -14 1 -7 -7 -12 -17
-12 -14 0 -19 6 -16 20 2 11 -1 23 -7 26 -6 4 -8 3 -5 -3z"/>
<path d="M1759 3723 c0 -5 -2 -16 -4 -26 -2 -11 -1 -16 3 -13 8 8 14 46 7 46
-3 0 -5 -3 -6 -7z"/>
<path d="M374 3700 c2 -18 9 -24 23 -23 13 1 19 -4 19 -17 0 -14 -5 -18 -17
-15 -20 7 -34 -10 -18 -21 8 -4 9 -3 5 4 -5 8 1 11 15 9 18 -2 23 3 23 23 0
20 -5 25 -23 23 -12 -2 -20 1 -17 5 2 4 0 14 -5 22 -7 11 -8 8 -5 -10z"/>
<path d="M979 3708 c-1 -7 -1 -16 0 -20 2 -12 -17 -10 -22 2 -3 6 -4 5 -3 -2
4 -22 29 -14 32 10 2 12 2 22 -1 22 -3 0 -6 -6 -6 -12z"/>
<path d="M1619 3708 c-1 -7 -1 -16 0 -20 2 -12 -17 -10 -22 2 -3 6 -4 5 -3 -2
4 -22 29 -14 32 10 2 12 2 22 -1 22 -3 0 -6 -6 -6 -12z"/>
<path d="M220 3700 c-18 -12 -2 -12 25 0 13 6 15 9 5 9 -8 0 -22 -4 -30 -9z"/>
<path d="M351 3694 c0 -11 3 -14 6 -6 3 7 2 16 -1 19 -3 4 -6 -2 -5 -13z"/>
<path d="M430 3700 c0 -5 7 -7 15 -4 8 4 15 8 15 10 0 2 -7 4 -15 4 -8 0 -15
-4 -15 -10z"/>
<path d="M500 3698 c0 -4 7 -8 15 -8 8 0 15 4 15 8 0 5 -7 9 -15 9 -8 0 -15
-4 -15 -9z"/>
<path d="M596 3695 c4 -8 8 -15 10 -15 2 0 4 7 4 15 0 8 -4 15 -10 15 -5 0 -7
-7 -4 -15z"/>
<path d="M820 3698 c0 -4 7 -8 15 -8 8 0 15 4 15 8 0 5 -7 9 -15 9 -8 0 -15
-4 -15 -9z"/>
<path d="M916 3695 c4 -8 8 -15 10 -15 2 0 4 7 4 15 0 8 -4 15 -10 15 -5 0 -7
-7 -4 -15z"/>
<path d="M1035 3700 c-3 -4 -2 -15 1 -24 5 -12 2 -15 -12 -10 -15 5 -16 4 -4
-4 19 -14 32 -5 25 19 -5 14 -3 17 9 13 9 -3 16 -4 16 -1 0 10 -29 16 -35 7z"/>
<path d="M1140 3698 c0 -4 7 -8 15 -8 8 0 15 4 15 8 0 5 -7 9 -15 9 -8 0 -15
-4 -15 -9z"/>
<path d="M1236 3695 c4 -8 8 -15 10 -15 2 0 4 7 4 15 0 8 -4 15 -10 15 -5 0
-7 -7 -4 -15z"/>
<path d="M1460 3698 c0 -4 7 -8 15 -8 8 0 15 4 15 8 0 5 -7 9 -15 9 -8 0 -15
-4 -15 -9z"/>
<path d="M1556 3695 c4 -8 8 -15 10 -15 2 0 4 7 4 15 0 8 -4 15 -10 15 -5 0
-7 -7 -4 -15z"/>
<path d="M1675 3700 c-3 -4 -2 -15 1 -24 5 -12 2 -15 -12 -10 -15 5 -16 4 -4
-4 19 -14 32 -5 25 19 -5 14 -3 17 9 13 9 -3 16 -4 16 -1 0 10 -29 16 -35 7z"/>
<path d="M1810 3706 c0 -2 7 -7 16 -10 8 -3 12 -2 9 4 -6 10 -25 14 -25 6z"/>
<path d="M1895 3701 c-3 -6 -3 -11 2 -11 4 0 -5 -9 -22 -20 -25 -16 -26 -19
-8 -17 12 0 20 4 17 8 -2 4 3 10 12 13 8 3 12 10 9 16 -3 5 -2 10 4 10 5 0 12
-5 14 -10 3 -6 4 -5 3 2 -3 16 -23 22 -31 9z"/>
<path d="M476 3687 c3 -10 9 -15 12 -12 3 3 0 11 -7 18 -10 9 -11 8 -5 -6z"/>
<path d="M549 3690 c-23 -13 -17 -56 7 -53 13 1 20 -5 21 -16 1 -12 -5 -17
-20 -17 -13 1 -21 -4 -19 -12 2 -9 -5 -12 -20 -8 -13 3 -17 3 -10 0 6 -3 9
-10 6 -16 -4 -6 3 -5 15 2 12 6 19 16 15 21 -4 7 3 9 17 7 20 -2 24 1 24 22
-1 19 -6 25 -21 23 -14 -1 -20 4 -20 17 0 14 5 18 17 15 10 -3 20 -1 24 4 4 7
-1 8 -11 4 -12 -4 -15 -3 -10 5 9 14 6 14 -15 2z"/>
<path d="M869 3690 c-23 -13 -17 -56 7 -53 13 1 20 -5 21 -16 1 -12 -5 -17
-20 -17 -13 1 -21 -4 -19 -12 2 -9 -5 -12 -20 -8 -13 3 -17 3 -10 0 6 -3 9
-10 6 -16 -4 -6 3 -5 15 2 12 6 19 16 15 21 -4 7 3 9 17 7 20 -2 24 1 24 22
-1 19 -6 25 -21 23 -14 -1 -20 4 -20 17 0 14 5 18 17 15 10 -3 20 -1 24 4 4 7
-1 8 -11 4 -12 -4 -15 -3 -10 5 9 14 6 14 -15 2z"/>
<path d="M1189 3690 c-23 -13 -17 -56 7 -53 13 1 20 -5 21 -16 1 -12 -5 -17
-20 -17 -13 1 -21 -4 -19 -12 2 -9 -5 -12 -20 -8 -13 3 -17 3 -10 0 6 -3 9
-10 6 -16 -4 -6 3 -5 15 2 12 6 19 16 15 21 -4 7 3 9 17 7 20 -2 24 1 24 22
-1 19 -6 25 -21 23 -14 -1 -20 4 -20 17 0 14 5 18 17 15 10 -3 20 -1 24 4 4 7
-1 8 -11 4 -12 -4 -15 -3 -10 5 9 14 6 14 -15 2z"/>
<path d="M1509 3690 c-23 -13 -17 -56 7 -53 13 1 20 -5 21 -16 1 -12 -5 -17
-20 -17 -13 1 -21 -4 -19 -12 2 -9 -5 -12 -20 -8 -13 3 -17 3 -10 0 6 -3 9
-10 6 -16 -4 -6 3 -5 15 2 12 6 19 16 15 21 -4 7 3 9 17 7 20 -2 24 1 24 22
-1 19 -6 25 -21 23 -14 -1 -20 4 -20 17 0 14 5 18 17 15 10 -3 20 -1 24 4 4 7
-1 8 -11 4 -12 -4 -15 -3 -10 5 9 14 6 14 -15 2z"/>
<path d="M454 3682 c4 -7 2 -12 -3 -12 -6 0 -11 -4 -11 -10 0 -15 17 -12 23 5
4 8 1 17 -5 21 -7 4 -8 3 -4 -4z"/>
<path d="M736 3682 c-2 -4 2 -16 10 -27 8 -10 14 -14 14 -9 0 6 -6 16 -12 23
-11 11 -10 13 5 8 9 -4 17 -2 17 3 0 12 -27 13 -34 2z"/>
<path d="M796 3675 c-9 -26 -7 -32 5 -12 6 10 9 21 6 23 -2 3 -7 -2 -11 -11z"/>
<path d="M1115 3681 c3 -5 1 -12 -5 -16 -5 -3 -10 -11 -10 -18 0 -6 7 -2 15 9
17 23 19 34 4 34 -5 0 -8 -4 -4 -9z"/>
<path d="M1376 3682 c-2 -4 2 -16 10 -27 8 -10 14 -14 14 -9 0 6 -6 16 -12 23
-11 11 -10 13 5 8 9 -4 17 -2 17 3 0 12 -27 13 -34 2z"/>
<path d="M1436 3675 c-9 -26 -7 -32 5 -12 6 10 9 21 6 23 -2 3 -7 -2 -11 -11z"/>
<path d="M1774 3678 c-7 -11 5 -28 19 -27 9 0 9 2 0 6 -20 7 -15 19 7 20 13 1
18 -2 14 -9 -4 -7 -2 -8 5 -4 6 4 9 11 6 16 -6 10 -45 9 -51 -2z"/>
<path d="M230 3670 c0 -5 5 -10 11 -10 5 0 7 5 4 10 -3 6 -8 10 -11 10 -2 0
-4 -4 -4 -10z"/>
<path d="M1063 3661 c-7 -11 -9 -22 -6 -25 10 -10 33 -7 33 4 0 5 -8 6 -17 3
-16 -6 -16 -5 -4 10 8 10 12 19 10 22 -3 2 -10 -4 -16 -14z"/>
<path d="M1703 3661 c-7 -11 -9 -22 -6 -25 10 -10 33 -7 33 4 0 5 -8 6 -17 3
-16 -6 -16 -5 -4 10 8 10 12 19 10 22 -3 2 -10 -4 -16 -14z"/>
<path d="M175 3659 c-9 -13 0 -22 25 -26 22 -3 35 12 19 23 -7 4 -9 3 -5 -4 4
-7 -1 -10 -14 -9 -22 1 -27 13 -7 20 9 4 9 6 0 6 -6 1 -15 -4 -18 -10z"/>
<path d="M264 3663 c4 -4 16 -8 28 -10 28 -4 18 6 -12 12 -12 2 -20 1 -16 -2z"/>
<path d="M330 3660 c0 -5 5 -10 10 -10 6 0 10 5 10 10 0 6 -4 10 -10 10 -5 0
-10 -4 -10 -10z"/>
<path d="M494 3659 c-3 -6 -2 -15 4 -21 6 -6 12 -6 17 3 5 8 4 10 -3 5 -7 -4
-12 -3 -12 3 0 5 6 12 13 14 9 4 9 6 0 6 -6 1 -15 -4 -19 -10z"/>
<path d="M610 3660 c0 -5 5 -10 10 -10 6 0 10 5 10 10 0 6 -4 10 -10 10 -5 0
-10 -4 -10 -10z"/>
<path d="M700 3658 c-12 -8 -12 -9 3 -4 20 6 21 2 7 -24 -9 -16 -7 -18 11 -15
12 3 24 7 28 11 3 4 -2 4 -12 1 -15 -6 -17 -3 -12 12 7 24 -6 33 -25 19z"/>
<path d="M814 3659 c-3 -6 -2 -15 4 -21 6 -6 12 -6 17 3 5 8 4 10 -3 5 -7 -4
-12 -3 -12 3 0 5 6 12 13 14 9 4 9 6 0 6 -6 1 -15 -4 -19 -10z"/>
<path d="M930 3660 c0 -5 5 -10 10 -10 6 0 10 5 10 10 0 6 -4 10 -10 10 -5 0
-10 -4 -10 -10z"/>
<path d="M1134 3659 c-3 -6 -2 -15 4 -21 6 -6 12 -6 17 3 5 8 4 10 -3 5 -7 -4
-12 -3 -12 3 0 5 6 12 13 14 9 4 9 6 0 6 -6 1 -15 -4 -19 -10z"/>
<path d="M1250 3660 c0 -5 5 -10 10 -10 6 0 10 5 10 10 0 6 -4 10 -10 10 -5 0
-10 -4 -10 -10z"/>
<path d="M1340 3658 c-12 -8 -12 -9 3 -4 20 6 21 2 7 -24 -9 -16 -7 -18 11
-15 12 3 24 7 28 11 3 4 -2 4 -12 1 -15 -6 -17 -3 -12 12 7 24 -6 33 -25 19z"/>
<path d="M1454 3659 c-3 -6 -2 -15 4 -21 6 -6 12 -6 17 3 5 8 4 10 -3 5 -7 -4
-12 -3 -12 3 0 5 6 12 13 14 9 4 9 6 0 6 -6 1 -15 -4 -19 -10z"/>
<path d="M1570 3660 c0 -5 5 -10 10 -10 6 0 10 5 10 10 0 6 -4 10 -10 10 -5 0
-10 -4 -10 -10z"/>
<path d="M1745 3659 c-4 -6 -5 -12 -2 -15 2 -3 7 2 10 11 7 17 1 20 -8 4z"/>
<path d="M1830 3652 c0 -7 -5 -10 -12 -6 -7 4 -8 3 -4 -5 4 -6 12 -9 17 -6 5
4 9 1 9 -6 0 -7 3 -10 6 -6 3 3 1 14 -5 24 -6 11 -11 13 -11 5z"/>
<path d="M245 3643 c20 -16 16 -40 -7 -39 -19 1 -22 -4 -20 -23 3 -16 0 -21
-9 -16 -8 5 -10 4 -5 -4 11 -17 28 -2 23 21 -4 15 -1 18 16 16 17 -2 22 2 22
21 0 14 -7 26 -15 28 -9 3 -11 1 -5 -4z"/>
<path d="M470 3641 c0 -6 4 -13 10 -16 6 -3 7 1 4 9 -7 18 -14 21 -14 7z"/>
<path d="M630 3628 c-10 -21 -10 -21 3 -5 18 22 22 22 24 -3 1 -13 -2 -18 -9
-14 -7 4 -8 2 -4 -5 11 -17 26 -3 22 21 -4 31 -23 33 -36 6z"/>
<path d="M779 3635 c22 -43 30 -51 28 -28 0 12 -3 20 -6 18 -2 -3 -10 3 -18
13 -13 16 -13 15 -4 -3z"/>
<path d="M979 3643 c-1 -4 -1 -11 0 -15 2 -13 -17 -9 -21 4 -3 8 -6 7 -10 -4
-5 -11 0 -15 15 -14 12 1 21 7 20 14 -2 7 6 12 16 12 14 0 19 -6 16 -20 -2
-11 1 -23 7 -26 7 -4 8 -2 4 4 -7 12 4 16 34 13 13 -2 13 0 1 8 -8 5 -20 7
-28 4 -8 -3 -13 0 -11 8 2 8 -7 15 -19 17 -13 2 -24 0 -24 -5z"/>
<path d="M1270 3628 c-10 -21 -10 -21 3 -5 18 22 22 22 24 -3 1 -13 -2 -18 -9
-14 -7 4 -8 2 -4 -5 11 -17 26 -3 22 21 -4 31 -23 33 -36 6z"/>
<path d="M1419 3635 c22 -43 30 -51 28 -28 0 12 -3 20 -6 18 -2 -3 -10 3 -18
13 -13 16 -13 15 -4 -3z"/>
<path d="M1619 3643 c-1 -4 -1 -11 0 -15 2 -13 -17 -9 -21 4 -3 8 -6 7 -10 -4
-5 -11 0 -15 15 -14 12 1 21 7 20 14 -2 7 6 12 16 12 14 0 19 -6 16 -20 -2
-11 1 -23 7 -26 7 -4 8 -2 4 4 -7 12 4 16 34 13 13 -2 13 0 1 8 -8 5 -20 7
-28 4 -8 -3 -13 0 -11 8 2 8 -7 15 -19 17 -13 2 -24 0 -24 -5z"/>
<path d="M1894 3638 c-4 -7 -3 -8 4 -4 7 4 12 2 12 -3 0 -6 5 -11 10 -11 15 0
12 17 -5 23 -8 4 -17 1 -21 -5z"/>
<path d="M307 3626 c-4 -10 -1 -13 9 -9 15 6 19 23 5 23 -5 0 -11 -7 -14 -14z"/>
<path d="M350 3625 c0 -8 4 -15 10 -15 5 0 7 7 4 15 -4 8 -8 15 -10 15 -2 0
-4 -7 -4 -15z"/>
<path d="M1870 3625 c0 -8 4 -15 10 -15 5 0 7 7 4 15 -4 8 -8 15 -10 15 -2 0
-4 -7 -4 -15z"/>
<path d="M430 3620 c0 -6 7 -10 15 -10 8 0 15 2 15 4 0 2 -7 6 -15 10 -8 3
-15 1 -15 -4z"/>
<path d="M510 3620 c-13 -8 -12 -10 3 -10 9 0 17 5 17 10 0 12 -1 12 -20 0z"/>
<path d="M830 3620 c-13 -8 -12 -10 3 -10 9 0 17 5 17 10 0 12 -1 12 -20 0z"/>
<path d="M1100 3617 c0 -9 -5 -16 -11 -14 -6 1 -13 -4 -14 -11 -2 -7 -1 -8 2
-2 2 5 9 8 14 4 11 -6 25 24 15 33 -3 4 -6 -1 -6 -10z"/>
<path d="M1150 3620 c-13 -8 -12 -10 3 -10 9 0 17 5 17 10 0 12 -1 12 -20 0z"/>
<path d="M1470 3620 c-13 -8 -12 -10 3 -10 9 0 17 5 17 10 0 12 -1 12 -20 0z"/>
<path d="M1740 3617 c0 -9 -5 -16 -11 -14 -6 1 -13 -4 -14 -11 -2 -7 -1 -8 2
-2 2 5 9 8 14 4 11 -6 25 24 15 33 -3 4 -6 -1 -6 -10z"/>
<path d="M1788 3623 c7 -3 16 -2 19 1 4 3 -2 6 -13 5 -11 0 -14 -3 -6 -6z"/>
<path d="M188 3613 c7 -3 16 -2 19 1 4 3 -2 6 -13 5 -11 0 -14 -3 -6 -6z"/>
<path d="M276 3593 c-6 -14 -5 -15 5 -6 7 7 10 15 7 18 -3 3 -9 -2 -12 -12z"/>
<path d="M336 3582 c0 -20 6 -27 23 -28 27 -2 35 11 21 33 -10 16 -10 16 -5
-2 4 -15 0 -21 -14 -22 -13 -1 -17 3 -14 17 3 10 1 20 -4 23 -5 3 -8 -7 -7
-21z"/>
<path d="M390 3601 c0 -6 6 -8 13 -5 9 3 13 -3 13 -17 -1 -21 27 -35 45 -23
11 6 0 34 -13 34 -6 0 -6 -6 2 -14 9 -12 8 -15 -10 -13 -14 1 -20 7 -18 21 2
13 -4 22 -14 24 -10 2 -18 -1 -18 -7z"/>
<path d="M470 3600 c0 -5 5 -10 10 -10 6 0 10 5 10 10 0 6 -4 10 -10 10 -5 0
-10 -4 -10 -10z"/>
<path d="M596 3593 c-6 -14 -5 -15 5 -6 7 7 10 15 7 18 -3 3 -9 -2 -12 -12z"/>
<path d="M677 3595 c-8 -20 9 -28 30 -15 16 9 15 10 -4 5 -18 -5 -22 -3 -17 9
3 9 4 16 1 16 -3 0 -7 -7 -10 -15z"/>
<path d="M737 3602 c-2 -4 -3 -16 -3 -27 1 -14 8 -20 26 -20 34 0 37 46 3 51
-12 2 -24 0 -26 -4z m40 -23 c-1 -10 -9 -17 -18 -16 -10 1 -17 9 -16 18 1 10
9 17 18 16 10 -1 17 -9 16 -18z"/>
<path d="M916 3593 c-6 -14 -5 -15 5 -6 7 7 10 15 7 18 -3 3 -9 -2 -12 -12z"/>
<path d="M993 3585 c1 -17 7 -29 12 -27 6 2 13 -7 17 -20 7 -22 7 -22 5 2 -2
15 -8 24 -16 22 -8 -2 -11 3 -8 11 3 8 1 20 -4 28 -5 9 -7 4 -6 -16z"/>
<path d="M1117 3597 c-3 -8 -2 -20 3 -26 5 -9 8 -4 8 13 0 29 -3 32 -11 13z"/>
<path d="M1236 3593 c-6 -14 -5 -15 5 -6 7 7 10 15 7 18 -3 3 -9 -2 -12 -12z"/>
<path d="M1317 3595 c-8 -20 9 -28 30 -15 16 9 15 10 -4 5 -18 -5 -22 -3 -17
9 3 9 4 16 1 16 -3 0 -7 -7 -10 -15z"/>
<path d="M1377 3602 c-2 -4 -3 -16 -3 -27 1 -14 8 -20 26 -20 34 0 37 46 3 51
-12 2 -24 0 -26 -4z m40 -23 c-1 -10 -9 -17 -18 -16 -10 1 -17 9 -16 18 1 10
9 17 18 16 10 -1 17 -9 16 -18z"/>
<path d="M1556 3593 c-6 -14 -5 -15 5 -6 7 7 10 15 7 18 -3 3 -9 -2 -12 -12z"/>
<path d="M1633 3585 c1 -17 7 -29 12 -27 6 2 13 -7 17 -20 7 -22 7 -22 5 2 -2
15 -8 24 -16 22 -8 -2 -11 3 -8 11 3 8 1 20 -4 28 -5 9 -7 4 -6 -16z"/>
<path d="M1773 3593 c-3 -7 -9 -10 -14 -7 -5 3 -6 -2 -2 -12 5 -14 8 -13 19 7
7 13 15 23 18 21 4 -2 12 -1 19 1 6 3 1 4 -12 4 -13 -1 -26 -7 -28 -14z"/>
<path d="M1836 3599 c3 -5 10 -7 15 -4 5 4 9 -1 9 -9 0 -9 5 -16 10 -16 17 0
-5 33 -24 36 -9 1 -14 -2 -10 -7z"/>
<path d="M1896 3602 c-3 -5 -4 -17 -2 -28 3 -21 28 -26 32 -6 1 7 0 8 -3 2 -8
-17 -19 -11 -20 10 -1 13 2 18 9 14 7 -4 8 -2 4 4 -8 14 -13 15 -20 4z"/>
<path d="M1037 3586 c-4 -10 -3 -15 2 -11 5 3 11 0 13 -7 5 -14 45 -21 53 -9
3 5 0 13 -6 17 -8 5 -9 3 -5 -5 6 -8 2 -11 -10 -9 -11 2 -24 11 -30 22 -10 17
-12 17 -17 2z"/>
<path d="M1677 3586 c-4 -10 -3 -15 2 -11 5 3 11 0 13 -7 5 -14 45 -21 53 -9
3 5 0 13 -6 17 -8 5 -9 3 -5 -5 6 -8 2 -11 -10 -9 -11 2 -24 11 -30 22 -10 17
-12 17 -17 2z"/>
<path d="M175 3580 c-3 -5 -2 -10 4 -10 5 0 13 5 16 10 3 6 2 10 -4 10 -5 0
-13 -4 -16 -10z"/>
<path d="M299 3583 c-1 -5 -1 -12 0 -16 2 -11 -32 -4 -42 8 -5 6 -7 4 -4 -5 4
-16 47 -21 46 -5 0 5 8 12 18 16 17 7 17 8 1 8 -10 1 -19 -2 -19 -6z"/>
<path d="M619 3583 c-1 -5 -1 -12 0 -16 2 -11 -32 -4 -42 8 -5 6 -7 4 -4 -5 4
-16 47 -21 46 -6 0 5 5 13 13 17 10 7 10 9 1 9 -7 0 -14 -3 -14 -7z"/>
<path d="M939 3583 c-1 -4 -1 -12 0 -16 2 -11 -32 -4 -42 8 -5 6 -7 4 -4 -5 4
-18 53 -21 50 -2 -3 14 13 16 20 2 3 -6 4 -5 3 2 -3 14 -25 24 -27 11z"/>
<path d="M1259 3583 c-1 -5 -1 -12 0 -16 2 -11 -32 -4 -42 8 -5 6 -7 4 -4 -5
4 -16 47 -21 46 -6 0 5 5 13 13 17 10 7 10 9 1 9 -7 0 -14 -3 -14 -7z"/>
<path d="M1579 3583 c-1 -4 -1 -12 0 -16 2 -11 -32 -4 -42 8 -5 6 -7 4 -4 -5
4 -18 53 -21 50 -2 -3 14 13 16 20 2 3 -6 4 -5 3 2 -3 14 -25 24 -27 11z"/>
<path d="M1799 3573 c-13 -15 -12 -15 9 -4 23 12 28 21 13 21 -5 0 -15 -7 -22
-17z"/>
<path d="M653 3575 c4 -5 -5 -17 -20 -27 -16 -10 -23 -18 -18 -18 6 0 21 9 34
19 19 14 21 20 10 26 -8 5 -11 4 -6 0z"/>
<path d="M1293 3575 c4 -5 -5 -17 -20 -27 -16 -10 -23 -18 -18 -18 6 0 21 9
34 19 19 14 21 20 10 26 -8 5 -11 4 -6 0z"/>
<path d="M553 3553 c0 -12 3 -20 6 -18 2 3 10 -3 18 -13 13 -16 13 -15 4 3
-22 43 -30 51 -28 28z"/>
<path d="M713 3553 c0 -12 3 -20 6 -18 2 3 10 -3 18 -13 13 -16 13 -15 4 3
-22 43 -30 51 -28 28z"/>
<path d="M873 3553 c0 -12 3 -20 6 -18 2 3 10 -3 18 -13 13 -16 13 -15 4 3
-22 43 -30 51 -28 28z"/>
<path d="M1193 3553 c0 -12 3 -20 6 -18 2 3 10 -3 18 -13 13 -16 13 -15 4 3
-22 43 -30 51 -28 28z"/>
<path d="M1353 3553 c0 -12 3 -20 6 -18 2 3 10 -3 18 -13 13 -16 13 -15 4 3
-22 43 -30 51 -28 28z"/>
<path d="M1513 3553 c0 -12 3 -20 6 -18 2 3 10 -3 18 -13 13 -16 13 -15 4 3
-22 43 -30 51 -28 28z"/>
<path d="M1830 3560 c0 -5 5 -10 10 -10 6 0 10 5 10 10 0 6 -4 10 -10 10 -5 0
-10 -4 -10 -10z"/>
<path d="M190 3540 c0 -6 7 -10 15 -10 8 0 15 2 15 4 0 2 -7 6 -15 10 -8 3
-15 1 -15 -4z"/>
<path d="M247 3530 c10 -11 19 -20 21 -20 1 0 -2 9 -8 20 -6 11 -15 20 -20 20
-6 0 -2 -9 7 -20z"/>
<path d="M302 3542 c-8 -6 -2 -9 18 -9 20 0 26 3 18 9 -7 4 -15 8 -18 8 -3 0
-11 -4 -18 -8z"/>
<path d="M407 3530 c10 -11 19 -20 21 -20 1 0 -2 9 -8 20 -6 11 -15 20 -20 20
-6 0 -2 -9 7 -20z"/>
<path d="M457 3538 c-7 -5 0 -6 17 -4 16 3 31 7 33 10 8 8 -37 2 -50 -6z"/>
<path d="M670 3540 c0 -5 7 -7 15 -4 8 4 15 8 15 10 0 2 -7 4 -15 4 -8 0 -15
-4 -15 -10z"/>
<path d="M777 3538 c-7 -5 0 -6 17 -4 16 3 31 7 33 10 8 8 -37 2 -50 -6z"/>
<path d="M937 3538 c-7 -5 0 -6 17 -4 16 3 31 7 33 10 8 8 -37 2 -50 -6z"/>
<path d="M1050 3530 c6 -11 13 -20 16 -20 2 0 0 9 -6 20 -6 11 -13 20 -16 20
-2 0 0 -9 6 -20z"/>
<path d="M1097 3538 c-7 -5 0 -6 17 -4 16 3 31 7 33 10 8 8 -37 2 -50 -6z"/>
<path d="M1310 3540 c0 -5 7 -7 15 -4 8 4 15 8 15 10 0 2 -7 4 -15 4 -8 0 -15
-4 -15 -10z"/>
<path d="M1417 3538 c-7 -5 0 -6 17 -4 16 3 31 7 33 10 8 8 -37 2 -50 -6z"/>
<path d="M1577 3538 c-7 -5 0 -6 17 -4 16 3 31 7 33 10 8 8 -37 2 -50 -6z"/>
<path d="M1690 3530 c6 -11 13 -20 16 -20 2 0 0 9 -6 20 -6 11 -13 20 -16 20
-2 0 0 -9 6 -20z"/>
<path d="M1737 3538 c-7 -5 0 -6 17 -4 16 3 31 7 33 10 8 8 -37 2 -50 -6z"/>
<path d="M1870 3540 c-13 -8 -12 -10 3 -10 9 0 17 5 17 10 0 12 -1 12 -20 0z"/>
<path d="M1836 3527 c3 -10 9 -15 12 -12 3 3 0 11 -7 18 -10 9 -11 8 -5 -6z"/>
<path d="M168 3523 c9 -3 10 -9 3 -17 -13 -15 0 -35 27 -41 15 -3 19 0 15 11
-3 8 -12 13 -19 10 -16 -6 -28 10 -14 19 13 8 3 25 -13 24 -8 0 -8 -2 1 -6z"/>
<path d="M233 3517 c6 -15 3 -17 -16 -11 -12 3 -19 3 -15 -1 4 -4 19 -9 33
-11 23 -2 25 0 13 14 -20 27 -22 28 -15 9z"/>
<path d="M390 3524 c0 -13 18 -39 24 -34 2 3 -2 14 -10 24 -8 11 -14 16 -14
10z"/>
<path d="M497 3522 c-3 -4 0 -16 4 -27 9 -18 9 -18 5 3 -3 17 0 22 12 20 10
-2 21 -7 25 -13 5 -6 7 -4 5 4 -4 15 -44 26 -51 13z"/>
<path d="M635 3520 c-4 -6 -4 -14 -1 -17 3 -4 6 -1 6 5 0 7 5 12 11 12 5 0 8
-4 5 -8 -2 -4 0 -14 5 -22 7 -11 8 -9 6 9 -4 27 -21 38 -32 21z"/>
<path d="M684 3519 c-4 -7 -3 -9 4 -5 5 3 13 0 15 -6 4 -9 6 -10 6 -1 1 17
-16 25 -25 12z"/>
<path d="M817 3522 c-3 -4 0 -16 4 -27 9 -18 9 -18 5 3 -3 17 0 22 12 20 10
-2 21 -7 25 -13 5 -6 7 -4 5 4 -4 15 -44 26 -51 13z"/>
<path d="M979 3523 c-1 -5 -1 -11 0 -15 2 -12 -17 -10 -22 2 -3 6 -4 5 -3 -2
2 -7 9 -13 17 -13 8 0 13 6 11 14 -2 8 3 11 13 8 8 -4 15 -2 15 3 0 12 -29 14
-31 3z"/>
<path d="M1137 3522 c-3 -4 0 -16 4 -27 9 -18 9 -18 5 3 -3 17 0 22 12 20 10
-2 21 -7 25 -13 5 -6 7 -4 5 4 -4 15 -44 26 -51 13z"/>
<path d="M1275 3520 c-4 -6 -4 -14 -1 -17 3 -4 6 -1 6 5 0 7 5 12 11 12 5 0 8
-4 5 -8 -2 -4 0 -14 5 -22 7 -11 8 -9 6 9 -4 27 -21 38 -32 21z"/>
<path d="M1324 3519 c-4 -7 -3 -9 4 -5 5 3 13 0 15 -6 4 -9 6 -10 6 -1 1 17
-16 25 -25 12z"/>
<path d="M1457 3522 c-3 -4 0 -16 4 -27 9 -18 9 -18 5 3 -3 17 0 22 12 20 10
-2 21 -7 25 -13 5 -6 7 -4 5 4 -4 15 -44 26 -51 13z"/>
<path d="M1619 3523 c-1 -5 -1 -11 0 -15 2 -12 -17 -10 -22 2 -3 6 -4 5 -3 -2
2 -7 9 -13 17 -13 8 0 13 6 11 14 -2 8 3 11 13 8 8 -4 15 -2 15 3 0 12 -29 14
-31 3z"/>
<path d="M1777 3522 c-3 -4 0 -16 4 -27 9 -18 9 -18 5 3 -3 17 0 22 12 20 10
-2 21 -7 25 -13 5 -6 7 -4 5 4 -4 15 -44 26 -51 13z"/>
<path d="M1899 3528 c-8 -36 -8 -51 0 -38 5 8 7 18 5 22 -3 4 -1 8 5 8 5 0 12
-5 14 -10 3 -6 4 -5 3 2 -2 10 -25 25 -27 16z"/>
<path d="M272 3488 c-10 -30 -10 -31 3 -14 13 17 21 46 12 46 -1 0 -8 -15 -15
-32z"/>
<path d="M310 3510 c0 -5 5 -10 10 -10 6 0 10 5 10 10 0 6 -4 10 -10 10 -5 0
-10 -4 -10 -10z"/>
<path d="M351 3509 c-1 -8 6 -24 15 -35 15 -19 15 -19 6 1 -5 11 -12 27 -15
35 -5 13 -6 13 -6 -1z"/>
<path d="M432 3488 c-10 -30 -10 -31 3 -14 13 17 21 46 12 46 -1 0 -8 -15 -15
-32z"/>
<path d="M601 3513 c-1 -6 -4 -20 -7 -30 -5 -17 -5 -17 6 0 6 10 9 23 6 30 -3
9 -5 9 -5 0z"/>
<path d="M761 3513 c-1 -6 -4 -20 -7 -30 -5 -17 -5 -17 6 0 6 10 9 23 6 30 -3
9 -5 9 -5 0z"/>
<path d="M921 3513 c-1 -6 -4 -20 -7 -30 -5 -17 -5 -17 6 0 6 10 9 23 6 30 -3
9 -5 9 -5 0z"/>
<path d="M1081 3513 c-1 -6 -4 -20 -7 -30 -5 -17 -5 -17 6 0 6 10 9 23 6 30
-3 9 -5 9 -5 0z"/>
<path d="M1241 3513 c-1 -6 -4 -20 -7 -30 -5 -17 -5 -17 6 0 6 10 9 23 6 30
-3 9 -5 9 -5 0z"/>
<path d="M1401 3513 c-1 -6 -4 -20 -7 -30 -5 -17 -5 -17 6 0 6 10 9 23 6 30
-3 9 -5 9 -5 0z"/>
<path d="M1561 3513 c-1 -6 -4 -20 -7 -30 -5 -17 -5 -17 6 0 6 10 9 23 6 30
-3 9 -5 9 -5 0z"/>
<path d="M1721 3513 c-1 -6 -4 -20 -7 -30 -5 -17 -5 -17 6 0 6 10 9 23 6 30
-3 9 -5 9 -5 0z"/>
<path d="M560 3500 c0 -5 5 -10 11 -10 5 0 7 5 4 10 -3 6 -8 10 -11 10 -2 0
-4 -4 -4 -10z"/>
<path d="M720 3500 c0 -5 5 -10 11 -10 5 0 7 5 4 10 -3 6 -8 10 -11 10 -2 0
-4 -4 -4 -10z"/>
<path d="M880 3500 c0 -5 5 -10 11 -10 5 0 7 5 4 10 -3 6 -8 10 -11 10 -2 0
-4 -4 -4 -10z"/>
<path d="M1035 3500 c3 -5 11 -10 16 -10 6 0 7 5 4 10 -3 6 -11 10 -16 10 -6
0 -7 -4 -4 -10z"/>
<path d="M1200 3500 c0 -5 5 -10 11 -10 5 0 7 5 4 10 -3 6 -8 10 -11 10 -2 0
-4 -4 -4 -10z"/>
<path d="M1360 3500 c0 -5 5 -10 11 -10 5 0 7 5 4 10 -3 6 -8 10 -11 10 -2 0
-4 -4 -4 -10z"/>
<path d="M1520 3500 c0 -5 5 -10 11 -10 5 0 7 5 4 10 -3 6 -8 10 -11 10 -2 0
-4 -4 -4 -10z"/>
<path d="M1675 3500 c3 -5 11 -10 16 -10 6 0 7 5 4 10 -3 6 -11 10 -16 10 -6
0 -7 -4 -4 -10z"/>
<path d="M1850 3500 c-8 -5 -10 -10 -5 -10 6 0 17 5 25 10 8 5 11 10 5 10 -5
0 -17 -5 -25 -10z"/>
<path d="M990 3480 c-6 -11 -8 -20 -6 -20 3 0 10 9 16 20 6 11 8 20 6 20 -3 0
-10 -9 -16 -20z"/>
<path d="M1630 3480 c-6 -11 -8 -20 -6 -20 3 0 10 9 16 20 6 11 8 20 6 20 -3
0 -10 -9 -16 -20z"/>
<path d="M295 3479 c-4 -6 -4 -13 -1 -16 3 -4 6 -1 6 6 0 7 5 9 12 5 7 -4 8
-3 4 4 -9 15 -13 15 -21 1z"/>
<path d="M330 3481 c0 -5 5 -13 10 -16 6 -3 10 -2 10 4 0 5 -4 13 -10 16 -5 3
-10 2 -10 -4z"/>
<path d="M454 3478 c-4 -5 -3 -12 0 -15 3 -4 6 -1 6 7 0 10 3 10 15 0 9 -7 18
-10 22 -6 3 3 1 6 -6 6 -7 0 -10 4 -7 8 3 5 -2 9 -10 9 -8 0 -17 -4 -20 -9z"/>
<path d="M534 3479 c-3 -6 -3 -13 0 -16 3 -4 6 -1 6 7 0 10 3 10 15 0 9 -7 17
-11 20 -9 2 3 -4 10 -15 17 -13 8 -21 8 -26 1z"/>
<path d="M614 3478 c-4 -5 -3 -12 0 -15 3 -4 6 -1 6 7 0 10 3 10 15 0 9 -7 18
-10 22 -6 3 3 1 6 -6 6 -7 0 -10 4 -7 8 3 5 -2 9 -10 9 -8 0 -17 -4 -20 -9z"/>
<path d="M694 3479 c-3 -6 -3 -13 0 -16 3 -4 6 -1 6 7 0 10 3 10 15 0 9 -7 17
-11 20 -9 2 3 -4 10 -15 17 -13 8 -21 8 -26 1z"/>
<path d="M774 3478 c-4 -5 -3 -12 0 -15 3 -4 6 -1 6 7 0 10 3 10 15 0 9 -7 18
-10 22 -6 3 3 1 6 -6 6 -7 0 -10 4 -7 8 3 5 -2 9 -10 9 -8 0 -17 -4 -20 -9z"/>
<path d="M854 3479 c-3 -6 -3 -13 0 -16 3 -4 6 -1 6 7 0 10 3 10 15 0 9 -7 17
-11 20 -9 2 3 -4 10 -15 17 -13 8 -21 8 -26 1z"/>
<path d="M935 3479 c-4 -6 -4 -13 -1 -16 3 -4 6 -1 6 7 0 10 4 10 18 -1 15
-13 16 -12 3 4 -16 20 -18 20 -26 6z"/>
<path d="M1014 3479 c-3 -6 -3 -13 0 -16 3 -4 6 -1 6 7 0 10 3 10 15 0 9 -7
17 -11 20 -9 2 3 -4 10 -15 17 -13 8 -21 8 -26 1z"/>
<path d="M1094 3478 c-4 -5 -3 -12 0 -15 3 -4 6 -1 6 7 0 10 3 10 15 0 9 -7
18 -10 22 -6 3 3 1 6 -6 6 -7 0 -10 4 -7 8 3 5 -2 9 -10 9 -8 0 -17 -4 -20 -9z"/>
<path d="M1174 3479 c-3 -6 -3 -13 0 -16 3 -4 6 -1 6 7 0 10 3 10 15 0 9 -7
17 -11 20 -9 2 3 -4 10 -15 17 -13 8 -21 8 -26 1z"/>
<path d="M1254 3478 c-4 -5 -3 -12 0 -15 3 -4 6 -1 6 7 0 10 3 10 15 0 9 -7
18 -10 22 -6 3 3 1 6 -6 6 -7 0 -10 4 -7 8 3 5 -2 9 -10 9 -8 0 -17 -4 -20 -9z"/>
<path d="M1334 3479 c-3 -6 -3 -13 0 -16 3 -4 6 -1 6 7 0 10 3 10 15 0 9 -7
17 -11 20 -9 2 3 -4 10 -15 17 -13 8 -21 8 -26 1z"/>
<path d="M1414 3478 c-4 -5 -3 -12 0 -15 3 -4 6 -1 6 7 0 10 3 10 15 0 9 -7
18 -10 22 -6 3 3 1 6 -6 6 -7 0 -10 4 -7 8 3 5 -2 9 -10 9 -8 0 -17 -4 -20 -9z"/>
<path d="M1494 3479 c-3 -6 -3 -13 0 -16 3 -4 6 -1 6 7 0 10 3 10 15 0 9 -7
17 -11 20 -9 2 3 -4 10 -15 17 -13 8 -21 8 -26 1z"/>
<path d="M1575 3479 c-4 -6 -4 -13 -1 -16 3 -4 6 -1 6 7 0 10 4 10 18 -1 15
-13 16 -12 3 4 -16 20 -18 20 -26 6z"/>
<path d="M1654 3479 c-3 -6 -3 -13 0 -16 3 -4 6 -1 6 7 0 10 3 10 15 0 9 -7
17 -11 20 -9 2 3 -4 10 -15 17 -13 8 -21 8 -26 1z"/>
<path d="M1734 3478 c-4 -5 -3 -12 0 -15 3 -4 6 -1 6 7 0 10 3 10 15 0 9 -7
18 -10 22 -6 3 3 1 6 -6 6 -7 0 -10 4 -7 8 3 5 -2 9 -10 9 -8 0 -17 -4 -20 -9z"/>
<path d="M1814 3479 c-3 -6 -3 -13 0 -16 3 -4 6 -1 6 5 0 6 7 9 15 6 8 -4 15
-4 15 -1 0 11 -30 16 -36 6z"/>
<path d="M1866 3473 c-6 -14 -5 -15 5 -6 7 7 10 15 7 18 -3 3 -9 -2 -12 -12z"/>
<path d="M1900 3473 c-13 -15 -12 -16 4 -10 10 4 20 7 22 7 2 0 4 5 4 10 0 15
-13 12 -30 -7z"/>
<path d="M184 3355 c-16 -13 -17 -16 -4 -25 23 -15 34 -12 19 7 -10 11 -10 14
-1 9 7 -4 12 -1 12 8 0 20 -1 20 -26 1z"/>
<path d="M221 3348 c-14 -22 2 -24 19 -3 17 20 32 19 28 -1 -2 -10 3 -19 10
-21 8 -3 10 2 6 14 -3 10 1 7 9 -7 9 -14 13 -28 11 -32 -6 -9 20 -11 29 -2 3
4 -4 15 -16 24 -24 20 -23 24 12 35 22 7 23 5 17 -19 -3 -14 -3 -26 1 -25 23
4 35 -3 30 -15 -4 -10 1 -14 14 -13 14 1 19 7 17 22 -2 11 -9 21 -15 21 -7 1
-17 2 -22 3 -5 0 -7 9 -4 19 4 15 -4 17 -66 17 -55 0 -72 -4 -80 -17z"/>
<path d="M385 3351 c-3 -7 -3 -16 0 -19 3 -3 5 -2 5 3 0 4 7 2 15 -5 11 -10
18 -10 29 -1 11 9 15 9 19 -1 6 -17 -3 -38 -15 -38 -6 0 -4 7 3 17 12 14 12
16 -1 11 -8 -3 -14 -13 -14 -22 2 -14 -8 -20 -28 -17 -10 1 -10 -13 -1 -22 3
-4 15 0 25 10 22 19 36 10 18 -12 -7 -8 -8 -15 -2 -15 21 0 32 27 32 78 -1 53
-1 54 -15 42 -8 -7 -15 -7 -19 -1 -9 14 -45 9 -51 -8z m45 1 c0 -13 -12 -22
-22 -16 -10 6 -1 24 13 24 5 0 9 -4 9 -8z"/>
<path d="M481 3356 c-5 -6 -6 -18 -2 -25 6 -9 11 -10 15 -2 4 6 4 16 1 21 -3
6 -1 10 5 10 8 0 10 -9 6 -25 -4 -14 -3 -25 1 -24 22 4 35 -2 30 -14 -3 -9 3
-14 22 -14 19 0 27 5 27 19 0 10 -5 19 -11 20 -5 0 -14 2 -20 3 -5 2 -15 3
-22 4 -6 0 -9 9 -6 19 5 21 -30 28 -46 8z"/>
<path d="M546 3353 c-10 -25 -7 -27 15 -7 17 16 22 16 29 4 6 -8 10 -11 10 -6
0 5 9 1 19 -8 11 -10 25 -15 30 -11 18 10 12 25 -6 19 -15 -5 -16 -4 -3 5 24
17 33 13 26 -14 -4 -14 -3 -25 1 -24 23 4 35 -3 30 -15 -4 -10 1 -14 14 -13
14 1 19 7 17 22 -2 11 -9 21 -15 21 -7 1 -17 2 -22 3 -5 0 -7 9 -4 20 4 15 -1
18 -24 17 -15 0 -31 -5 -35 -11 -6 -7 -10 -7 -15 0 -12 16 -61 14 -67 -2z"/>
<path d="M705 3351 c-3 -7 -3 -16 0 -19 3 -3 5 -2 5 3 0 4 7 2 15 -5 11 -10
18 -10 29 -1 11 9 15 9 19 -1 6 -17 -3 -38 -15 -38 -6 0 -4 7 3 17 12 14 12
16 -1 11 -8 -3 -14 -13 -14 -22 2 -14 -8 -20 -28 -17 -10 1 -10 -13 -1 -22 3
-4 15 0 25 10 22 19 36 10 18 -12 -7 -8 -8 -15 -2 -15 21 0 32 27 32 78 -1 53
-1 54 -15 42 -8 -7 -15 -7 -19 -1 -9 14 -45 9 -51 -8z m45 1 c0 -13 -12 -22
-22 -16 -10 6 -1 24 13 24 5 0 9 -4 9 -8z"/>
<path d="M801 3356 c-5 -6 -6 -18 -2 -25 6 -9 11 -10 15 -2 4 6 4 16 1 21 -3
6 -1 10 5 10 8 0 10 -9 6 -25 -4 -14 -3 -25 1 -24 24 4 35 -2 29 -17 -4 -10
-1 -14 6 -12 7 3 13 10 13 16 0 5 3 14 8 18 4 4 7 12 7 18 0 6 -4 6 -11 -1
-16 -16 -38 -5 -32 15 5 21 -30 27 -46 8z"/>
<path d="M865 3352 c-8 -22 -6 -25 9 -13 10 9 16 8 26 -4 17 -20 31 -19 24 3
-3 9 1 6 9 -8 9 -14 13 -28 11 -32 -6 -9 20 -11 29 -2 3 4 -4 15 -16 24 -24
20 -23 24 12 35 22 7 23 5 17 -19 -3 -14 -3 -26 1 -25 23 4 35 -3 30 -15 -4
-10 1 -14 14 -13 14 1 19 7 17 22 -2 11 -9 21 -15 21 -7 1 -17 2 -22 3 -5 0
-7 9 -4 19 4 15 -4 17 -66 17 -50 0 -72 -4 -76 -13z m45 -2 c0 -5 -2 -10 -4
-10 -3 0 -8 5 -11 10 -3 6 -1 10 4 10 6 0 11 -4 11 -10z"/>
<path d="M1025 3351 c-3 -7 -3 -16 0 -19 3 -3 5 -2 5 3 0 4 7 2 15 -5 11 -10
18 -10 29 -1 11 9 15 9 19 -1 6 -17 -3 -38 -15 -38 -6 0 -4 7 3 17 12 14 12
16 -1 11 -8 -3 -14 -13 -14 -22 2 -14 -8 -20 -28 -17 -10 1 -10 -13 -1 -22 3
-4 15 0 25 10 22 19 36 10 18 -12 -7 -8 -8 -15 -2 -15 21 0 32 27 32 78 -1 53
-1 54 -15 42 -8 -7 -15 -7 -19 -1 -9 14 -45 9 -51 -8z m45 1 c0 -13 -12 -22
-22 -16 -10 6 -1 24 13 24 5 0 9 -4 9 -8z"/>
<path d="M1121 3356 c-5 -6 -6 -18 -2 -25 6 -9 11 -10 15 -2 4 6 4 16 1 21 -3
6 -1 10 5 10 8 0 10 -9 6 -25 -4 -14 -3 -25 1 -24 22 4 35 -2 30 -14 -3 -9 3
-14 22 -14 19 0 27 5 27 19 0 10 -5 19 -11 20 -5 0 -14 2 -20 3 -5 2 -15 3
-22 4 -6 0 -9 9 -6 19 5 21 -30 28 -46 8z"/>
<path d="M1186 3353 c-10 -25 -7 -27 15 -7 17 16 22 16 29 4 6 -8 10 -11 10
-6 0 5 9 1 19 -8 11 -10 25 -15 30 -11 18 10 12 25 -6 19 -15 -5 -16 -4 -3 5
24 17 33 13 26 -14 -4 -14 -3 -25 1 -24 23 4 35 -3 30 -15 -4 -10 1 -14 14
-13 14 1 19 7 17 22 -2 11 -9 21 -15 21 -7 1 -17 2 -22 3 -5 0 -7 9 -4 20 4
15 -1 18 -24 17 -15 0 -31 -5 -35 -11 -6 -7 -10 -7 -15 0 -12 16 -61 14 -67
-2z"/>
<path d="M1345 3351 c-3 -7 -3 -16 0 -19 3 -3 5 -2 5 3 0 4 7 2 15 -5 11 -10
18 -10 29 -1 11 9 15 9 19 -1 6 -17 -3 -38 -15 -38 -6 0 -4 7 3 17 12 14 12
16 -1 11 -8 -3 -14 -13 -14 -22 2 -14 -8 -20 -28 -17 -10 1 -10 -13 -1 -22 3
-4 15 0 25 10 22 19 36 10 18 -12 -7 -8 -8 -15 -2 -15 21 0 32 27 32 78 -1 53
-1 54 -15 42 -8 -7 -15 -7 -19 -1 -9 14 -45 9 -51 -8z m45 1 c0 -13 -12 -22
-22 -16 -10 6 -1 24 13 24 5 0 9 -4 9 -8z"/>
<path d="M1441 3356 c-5 -6 -6 -18 -2 -25 6 -9 11 -10 15 -2 4 6 4 16 1 21 -3
6 -1 10 5 10 8 0 10 -9 6 -25 -4 -14 -3 -25 1 -24 24 4 35 -2 29 -17 -4 -10
-1 -14 6 -12 7 3 13 10 13 16 0 5 3 14 8 18 4 4 7 12 7 18 0 6 -4 6 -11 -1
-16 -16 -38 -5 -32 15 5 21 -30 27 -46 8z"/>
<path d="M1505 3352 c-8 -22 -6 -25 9 -13 10 9 16 8 26 -4 17 -20 31 -19 24 3
-3 9 1 6 9 -8 9 -14 13 -28 11 -32 -6 -9 20 -11 29 -2 3 4 -4 15 -16 24 -24
20 -23 24 12 35 22 7 23 5 17 -19 -3 -14 -3 -26 1 -25 23 4 35 -3 30 -15 -4
-10 1 -14 14 -13 14 1 19 7 17 22 -2 11 -9 21 -15 21 -7 1 -17 2 -22 3 -5 0
-7 9 -4 19 4 15 -4 17 -66 17 -50 0 -72 -4 -76 -13z m45 -2 c0 -5 -2 -10 -4
-10 -3 0 -8 5 -11 10 -3 6 -1 10 4 10 6 0 11 -4 11 -10z"/>
<path d="M1665 3351 c-3 -7 -3 -16 0 -19 3 -3 5 -2 5 3 0 4 7 2 15 -5 11 -10
18 -10 29 -1 11 9 15 9 19 -1 6 -17 -3 -38 -15 -38 -6 0 -4 7 3 17 12 14 12
16 -1 11 -8 -3 -14 -13 -14 -22 2 -14 -8 -20 -28 -17 -10 1 -10 -13 -1 -22 3
-4 15 0 25 10 22 19 36 10 18 -12 -7 -8 -8 -15 -2 -15 21 0 32 27 32 78 -1 53
-1 54 -15 42 -8 -7 -15 -7 -19 -1 -9 14 -45 9 -51 -8z m45 1 c0 -13 -12 -22
-22 -16 -10 6 -1 24 13 24 5 0 9 -4 9 -8z"/>
<path d="M1761 3356 c-5 -6 -6 -18 -2 -25 6 -9 11 -10 15 -2 4 6 4 16 1 21 -3
6 -1 10 5 10 8 0 10 -9 6 -25 -4 -14 -3 -25 1 -24 24 4 35 -2 29 -17 -4 -10
-1 -14 6 -12 7 3 13 9 13 14 0 5 4 15 9 22 5 9 3 13 -5 11 -28 -3 -37 2 -32
19 5 21 -30 28 -46 8z"/>
<path d="M1825 3352 c-9 -24 -6 -26 16 -6 16 14 23 16 26 6 3 -6 10 -9 16 -5
7 4 6 -1 -2 -10 -19 -24 -4 -21 27 4 25 20 25 21 5 15 -13 -4 -23 -3 -23 2 0
14 -59 9 -65 -6z"/>
<path d="M231 3329 c-15 -13 -31 -17 -44 -13 -20 6 -20 6 -3 -11 15 -15 19
-16 28 -4 8 11 9 10 4 -3 -3 -10 0 -19 7 -20 7 0 17 -2 22 -3 6 -2 17 -3 25
-4 13 -1 13 -3 0 -10 -8 -6 -18 -7 -24 -4 -5 3 -6 1 -2 -5 4 -7 2 -12 -3 -12
-6 0 -11 7 -11 15 0 8 -5 15 -10 15 -6 0 -9 -11 -7 -25 3 -25 17 -47 17 -27 0
7 5 12 12 12 9 0 9 -3 0 -12 -18 -18 -15 -33 3 -18 9 7 14 19 11 27 -5 12 6
17 27 14 4 0 7 3 7 8 0 5 2 16 5 24 6 13 -4 17 -50 18 -16 0 -17 2 -5 9 12 8
13 10 1 10 -8 0 -12 3 -9 6 4 3 17 -2 31 -11 15 -9 28 -12 31 -7 3 6 -6 13
-20 16 -17 5 -24 12 -20 21 7 19 6 19 -23 -6z"/>
<path d="M321 3341 c-8 -6 -9 -11 -3 -15 6 -3 14 -1 17 5 9 14 2 20 -14 10z"/>
<path d="M570 3342 c0 -5 14 -15 30 -22 17 -7 30 -16 30 -20 0 -4 14 -7 31 -8
34 -1 32 10 -3 15 -12 2 -30 11 -40 20 -10 9 -18 13 -18 8 0 -4 -7 -2 -15 5
-8 7 -15 8 -15 2z"/>
<path d="M961 3341 c-8 -6 -9 -11 -3 -15 6 -3 14 -1 17 5 9 14 2 20 -14 10z"/>
<path d="M1210 3342 c0 -5 14 -15 30 -22 17 -7 30 -16 30 -20 0 -4 14 -7 31
-8 34 -1 32 10 -3 15 -12 2 -30 11 -40 20 -10 9 -18 13 -18 8 0 -4 -7 -2 -15
5 -8 7 -15 8 -15 2z"/>
<path d="M1601 3341 c-8 -6 -9 -11 -3 -15 6 -3 14 -1 17 5 9 14 2 20 -14 10z"/>
<path d="M1850 3340 c0 -5 5 -10 11 -10 5 0 7 5 4 10 -3 6 -8 10 -11 10 -2 0
-4 -4 -4 -10z"/>
<path d="M1900 3325 c-6 -8 -22 -13 -33 -12 -12 1 -22 -3 -22 -10 0 -6 -3 -15
-7 -19 -12 -11 -10 -34 3 -34 5 0 7 5 4 10 -3 6 0 13 9 16 8 3 12 13 9 22 -4
15 -3 15 7 2 9 -11 13 -12 17 -2 7 17 20 15 27 -4 3 -8 2 -12 -4 -9 -5 3 -18
1 -27 -4 -10 -6 -13 -11 -8 -12 6 -1 15 -2 20 -4 6 -1 17 -3 25 -4 13 -1 13
-2 0 -11 -13 -9 -13 -10 0 -10 13 0 13 -2 1 -9 -13 -8 -13 -12 0 -28 13 -17
13 -17 -5 -3 -18 14 -19 13 -13 -3 4 -10 7 -21 7 -23 0 -3 5 -2 12 2 7 4 8 3
4 -4 -4 -6 -14 -9 -24 -6 -12 4 -10 -1 7 -15 14 -13 18 -21 10 -21 -11 0 -11
-2 1 -10 12 -7 12 -10 1 -10 -8 0 -11 -6 -7 -16 3 -8 2 -12 -4 -9 -6 3 -10 2
-10 -4 0 -5 6 -14 14 -18 12 -7 11 -10 -2 -23 -14 -13 -15 -12 -10 2 9 23 -2
30 -19 13 -19 -19 -8 -35 19 -30 26 5 40 25 28 41 -6 6 -7 14 -3 17 8 9 10
216 2 211 -4 -2 -9 3 -12 11 -4 9 -1 12 9 8 10 -4 12 0 8 11 -8 20 -18 20 -34
1z"/>
<path d="M886 3311 c-4 -5 -1 -13 5 -17 8 -4 9 -3 5 4 -5 8 -2 10 9 6 19 -7
14 -14 -11 -18 -10 -2 -20 -9 -22 -16 -3 -8 0 -10 7 -6 7 4 10 2 9 -5 -2 -6 3
-14 10 -16 8 -3 10 1 6 11 -5 14 5 21 28 17 4 0 6 8 5 19 -1 11 -4 20 -8 20
-4 0 -14 3 -22 6 -8 3 -18 1 -21 -5z"/>
<path d="M1526 3311 c-4 -5 -1 -13 5 -17 8 -4 9 -3 5 4 -5 8 -2 10 9 6 19 -7
14 -14 -11 -18 -10 -2 -20 -9 -22 -16 -3 -8 0 -10 7 -6 7 4 10 2 9 -5 -2 -6 3
-14 10 -16 8 -3 10 1 6 11 -5 14 5 21 28 17 4 0 6 8 5 19 -1 11 -4 20 -8 20
-4 0 -14 3 -22 6 -8 3 -18 1 -21 -5z"/>
<path d="M325 3284 c-16 -12 -26 -26 -23 -29 4 -4 15 2 26 13 11 11 25 21 33
24 7 2 9 7 4 10 -6 3 -23 -5 -40 -18z"/>
<path d="M479 3302 c0 -4 -2 -18 -3 -30 -3 -23 -21 -42 -41 -42 -6 0 -11 -9
-12 -20 -1 -11 2 -18 7 -15 5 3 15 -2 23 -10 12 -11 17 -12 21 -2 5 9 7 9 12
0 3 -7 9 -13 13 -13 12 0 9 30 -3 32 -6 0 -15 2 -21 3 -5 2 -17 3 -25 4 -13 1
-13 3 -1 10 8 5 19 8 25 7 6 -2 8 -1 4 1 -4 3 0 15 8 28 9 13 13 28 10 34 -4
5 4 7 16 4 13 -3 20 -2 15 2 -10 12 -47 17 -48 7z"/>
<path d="M590 3300 c0 -5 5 -10 10 -10 6 0 10 5 10 10 0 6 -4 10 -10 10 -5 0
-10 -4 -10 -10z"/>
<path d="M799 3302 c0 -4 -2 -19 -4 -34 -2 -15 -1 -27 3 -27 21 3 32 -2 26
-13 -4 -6 1 -17 11 -24 15 -11 16 -16 5 -29 -8 -9 -8 -15 -2 -15 27 0 41 90
16 111 -15 12 -37 3 -28 -13 4 -6 10 -5 15 3 7 11 9 10 9 -3 0 -35 -33 -13
-35 23 -1 12 4 15 19 11 12 -3 18 -1 13 3 -10 12 -47 17 -48 7z m51 -82 c0 -5
-2 -10 -4 -10 -3 0 -8 5 -11 10 -3 6 -1 10 4 10 6 0 11 -4 11 -10z"/>
<path d="M965 3284 l-30 -25 25 -20 c23 -19 23 -22 7 -33 -9 -7 -13 -17 -9
-21 4 -5 1 -5 -6 -1 -8 5 -9 13 -2 25 9 18 4 31 -12 31 -4 0 -7 -3 -7 -7 4
-24 -3 -35 -17 -29 -10 4 -14 1 -12 -6 3 -7 10 -13 15 -13 6 0 15 -3 19 -7 13
-14 33 -8 39 11 3 10 13 18 22 17 9 0 18 6 21 14 5 13 3 13 -11 1 -10 -7 -17
-9 -17 -3 0 14 24 22 39 12 9 -5 10 -10 2 -14 -6 -4 -11 -11 -11 -17 0 -5 9
-4 20 3 10 7 17 14 15 17 -3 2 2 16 12 30 16 26 16 26 -4 8 -20 -18 -22 -18
-41 3 -20 21 -42 20 -42 -2 0 -7 6 -6 15 2 9 7 15 8 15 2 0 -18 -27 -21 -47
-6 -10 9 -13 13 -6 10 6 -4 15 0 20 7 4 8 15 16 23 19 7 2 10 7 5 10 -6 3 -24
-5 -40 -18z"/>
<path d="M1119 3302 c0 -4 -2 -18 -3 -30 -3 -23 -21 -42 -41 -42 -6 0 -11 -9
-12 -20 -1 -11 2 -18 7 -15 5 3 15 -2 23 -10 12 -11 17 -12 21 -2 5 9 7 9 12
0 3 -7 9 -13 13 -13 12 0 9 30 -3 32 -6 0 -15 2 -21 3 -5 2 -17 3 -25 4 -13 1
-13 3 -1 10 8 5 19 8 25 7 6 -2 8 -1 4 1 -4 3 0 15 8 28 9 13 13 28 10 34 -4
5 4 7 16 4 13 -3 20 -2 15 2 -10 12 -47 17 -48 7z"/>
<path d="M1230 3300 c0 -5 5 -10 10 -10 6 0 10 5 10 10 0 6 -4 10 -10 10 -5 0
-10 -4 -10 -10z"/>
<path d="M1439 3302 c0 -4 -2 -19 -4 -34 -2 -15 -1 -27 3 -27 21 3 32 -2 26
-13 -4 -6 1 -17 11 -24 15 -11 16 -16 5 -29 -8 -9 -8 -15 -2 -15 27 0 41 90
16 111 -15 12 -37 3 -28 -13 4 -6 10 -5 15 3 7 11 9 10 9 -3 0 -35 -33 -13
-35 23 -1 12 4 15 19 11 12 -3 18 -1 13 3 -10 12 -47 17 -48 7z m51 -82 c0 -5
-2 -10 -4 -10 -3 0 -8 5 -11 10 -3 6 -1 10 4 10 6 0 11 -4 11 -10z"/>
<path d="M1605 3284 l-30 -25 25 -20 c23 -19 23 -22 7 -33 -9 -7 -13 -17 -9
-21 4 -5 1 -5 -6 -1 -8 5 -9 13 -2 25 9 18 4 31 -12 31 -4 0 -7 -3 -7 -7 4
-24 -3 -35 -17 -29 -10 4 -14 1 -12 -6 3 -7 10 -13 15 -13 6 0 15 -3 19 -7 13
-14 33 -8 39 11 3 10 13 18 22 17 9 0 18 6 21 14 5 13 3 13 -11 1 -10 -7 -17
-9 -17 -3 0 14 24 22 39 12 9 -5 10 -10 2 -14 -6 -4 -11 -11 -11 -17 0 -5 9
-4 20 3 10 7 17 14 15 17 -3 2 2 16 12 30 16 26 16 26 -4 8 -20 -18 -22 -18
-41 3 -20 21 -42 20 -42 -2 0 -7 6 -6 15 2 9 7 15 8 15 2 0 -18 -27 -21 -47
-6 -10 9 -13 13 -6 10 6 -4 15 0 20 7 4 8 15 16 23 19 7 2 10 7 5 10 -6 3 -24
-5 -40 -18z"/>
<path d="M1759 3302 c0 -4 -2 -18 -3 -30 -3 -23 -21 -42 -41 -42 -6 0 -11 -9
-12 -20 -1 -11 2 -18 7 -15 5 3 15 -2 23 -10 12 -11 17 -12 21 -2 5 9 7 9 12
0 3 -7 9 -13 13 -13 12 0 9 30 -3 32 -6 0 -15 2 -21 3 -5 2 -17 3 -25 4 -13 1
-13 3 -1 10 8 5 19 8 25 7 6 -2 8 -1 4 1 -4 3 0 15 8 28 9 13 13 28 10 34 -4
5 4 7 16 4 13 -3 20 -2 15 2 -10 12 -47 17 -48 7z"/>
<path d="M174 3234 c0 -35 3 -64 8 -64 4 0 7 3 7 8 -5 33 5 33 36 -2 19 -21
32 -42 29 -47 -2 -4 5 -7 16 -6 11 1 20 4 20 8 0 4 3 16 6 26 5 16 4 16 -10
-1 -9 -11 -16 -16 -17 -10 0 5 -2 16 -4 25 -1 8 4 24 11 34 8 10 15 13 15 7 1
-7 2 -18 3 -24 2 -21 34 -21 40 0 4 11 14 19 23 18 9 0 18 6 21 14 5 13 3 13
-11 1 -10 -7 -17 -9 -17 -3 0 14 24 22 39 12 9 -5 10 -10 2 -14 -6 -4 -11 -11
-11 -17 0 -5 9 -4 20 3 10 7 17 14 15 17 -3 2 2 16 12 30 16 26 16 26 -4 8
-20 -18 -22 -18 -41 3 -20 21 -42 20 -42 -2 0 -7 6 -6 15 2 10 9 15 9 15 1 0
-6 -3 -11 -7 -12 -12 -1 -67 -8 -80 -10 -6 -1 -14 -13 -18 -26 -3 -12 -10 -23
-16 -23 -6 0 -7 -6 -4 -12 4 -7 -4 -1 -17 15 -13 15 -30 27 -38 28 -10 0 -8 4
5 9 11 5 14 9 7 9 -9 1 -10 6 -3 19 7 13 5 21 -7 29 -15 9 -17 3 -18 -53z
m166 -14 c0 -5 -5 -12 -11 -16 -12 -7 -31 15 -23 28 6 9 34 -1 34 -12z"/>
<path d="M599 3279 c-8 -5 -22 -6 -31 -3 -12 3 -18 0 -18 -10 0 -9 5 -16 11
-16 5 0 7 5 3 12 -4 7 -3 8 5 4 6 -4 9 -12 6 -17 -4 -5 -2 -9 4 -9 5 0 16 -7
24 -15 13 -12 16 -12 21 0 3 8 -3 16 -15 20 -10 4 -19 11 -19 18 0 8 3 8 12
-1 19 -19 32 -14 17 6 -13 15 -12 16 3 4 9 -8 22 -11 28 -7 5 3 10 1 10 -6 0
-8 4 -8 15 1 10 9 15 9 15 1 0 -11 -11 -14 -45 -12 -19 2 -19 1 -1 -13 20 -16
12 -41 -11 -32 -11 5 -13 2 -9 -10 3 -8 6 -18 6 -20 0 -13 20 -1 25 15 3 10
13 18 22 17 9 0 18 6 21 14 5 13 3 13 -11 1 -10 -7 -17 -9 -17 -3 0 14 24 22
39 12 9 -5 10 -10 2 -14 -6 -4 -11 -11 -11 -17 0 -5 9 -4 20 3 10 7 17 14 15
17 -3 2 2 16 12 30 16 26 16 26 -4 8 -20 -18 -22 -18 -41 3 -11 12 -25 19 -31
15 -6 -3 -11 -3 -11 2 0 11 -44 13 -61 2z"/>
<path d="M1239 3279 c-8 -5 -22 -6 -31 -3 -12 3 -18 0 -18 -10 0 -9 5 -16 11
-16 5 0 7 5 3 12 -4 7 -3 8 5 4 6 -4 9 -12 6 -17 -4 -5 -2 -9 4 -9 5 0 16 -7
24 -15 13 -12 16 -12 21 0 3 8 -3 16 -15 20 -10 4 -19 11 -19 18 0 8 3 8 12
-1 19 -19 32 -14 17 6 -13 15 -12 16 3 4 9 -8 22 -11 28 -7 5 3 10 1 10 -6 0
-8 4 -8 15 1 10 9 15 9 15 1 0 -11 -11 -14 -45 -12 -19 2 -19 1 -1 -13 20 -16
12 -41 -11 -32 -11 5 -13 2 -9 -10 3 -8 6 -18 6 -20 0 -13 20 -1 25 15 3 10
13 18 22 17 9 0 18 6 21 14 5 13 3 13 -11 1 -10 -7 -17 -9 -17 -3 0 14 24 22
39 12 9 -5 10 -10 2 -14 -6 -4 -11 -11 -11 -17 0 -5 9 -4 20 3 10 7 17 14 15
17 -3 2 2 16 12 30 16 26 16 26 -4 8 -20 -18 -22 -18 -41 3 -11 12 -25 19 -31
15 -6 -3 -11 -3 -11 2 0 11 -44 13 -61 2z"/>
<path d="M504 3268 c-17 -27 -12 -56 13 -67 19 -9 24 -9 20 1 -2 7 -11 12 -18
10 -8 -2 -11 0 -7 4 4 4 2 14 -5 23 -11 14 -10 15 7 1 18 -14 18 -13 12 10
l-7 25 15 -25 c8 -14 18 -24 23 -23 16 3 41 -29 37 -50 -4 -22 11 -47 29 -47
5 0 3 8 -6 18 -12 13 -14 21 -6 29 8 8 4 18 -17 37 -16 15 -38 35 -50 46 -24
23 -30 24 -40 8z"/>
<path d="M1144 3268 c-17 -27 -12 -56 13 -67 19 -9 24 -9 20 1 -2 7 -11 12
-18 10 -8 -2 -11 0 -7 4 4 4 2 14 -5 23 -11 14 -10 15 7 1 18 -14 18 -13 12
10 l-7 25 15 -25 c8 -14 18 -24 23 -23 16 3 41 -29 37 -50 -4 -22 11 -47 29
-47 5 0 3 8 -6 18 -12 13 -14 21 -6 29 8 8 4 18 -17 37 -16 15 -38 35 -50 46
-24 23 -30 24 -40 8z"/>
<path d="M1784 3268 c-17 -27 -12 -56 13 -67 19 -9 24 -9 20 1 -2 7 -11 12
-18 10 -8 -2 -11 0 -7 4 4 4 2 14 -5 23 -11 14 -10 15 7 1 18 -14 18 -13 12
10 -6 23 -6 23 9 -3 13 -22 19 -26 29 -17 15 12 46 3 46 -13 0 -7 -4 -7 -12 1
-19 19 -33 14 -16 -5 9 -10 14 -27 12 -38 -3 -21 12 -45 29 -45 5 0 2 9 -7 19
-12 13 -14 21 -6 26 5 3 8 10 5 15 -3 5 -1 19 5 30 8 15 8 20 -2 20 -9 0 -9 3
2 11 12 8 10 9 -7 4 -14 -4 -23 -2 -23 4 0 6 -4 11 -10 11 -5 0 -9 -5 -7 -11
4 -21 -22 -20 -33 0 -12 23 -25 27 -36 9z"/>
<path d="M919 3268 c-6 -20 -8 -61 -3 -55 10 9 17 57 9 57 -3 0 -5 -1 -6 -2z"/>
<path d="M1559 3268 c-6 -20 -8 -61 -3 -55 10 9 17 57 9 57 -3 0 -5 -1 -6 -2z"/>
<path d="M760 3231 c-8 -3 -16 -14 -18 -25 -2 -10 1 -15 7 -12 5 3 16 0 24 -9
13 -13 16 -12 22 3 6 16 7 16 20 -1 8 -12 15 -14 20 -8 3 6 -1 14 -9 17 -9 3
-16 14 -16 23 0 17 -24 23 -50 12z m35 -21 c-3 -5 -13 -6 -21 -3 -12 4 -13 8
-3 14 15 9 32 2 24 -11z"/>
<path d="M878 3228 c9 -11 9 -18 2 -21 -6 -3 -5 -4 2 -3 18 4 16 28 -2 34 -13
4 -13 3 -2 -10z"/>
<path d="M1400 3231 c-8 -3 -16 -14 -18 -25 -2 -10 1 -15 7 -12 5 3 16 0 24
-9 13 -13 16 -12 22 3 6 16 7 16 20 -1 8 -12 15 -14 20 -8 3 6 -1 14 -9 17 -9
3 -16 14 -16 23 0 17 -24 23 -50 12z m35 -21 c-3 -5 -13 -6 -21 -3 -12 4 -13
8 -3 14 15 9 32 2 24 -11z"/>
<path d="M1518 3228 c9 -11 9 -18 2 -21 -6 -3 -5 -4 2 -3 18 4 16 28 -2 34
-13 4 -13 3 -2 -10z"/>
<path d="M540 3215 c7 -12 21 -22 32 -22 16 -2 17 1 7 13 -6 8 -14 12 -17 9
-3 -3 -12 1 -20 8 -13 10 -14 9 -2 -8z"/>
<path d="M630 3220 c0 -5 5 -10 11 -10 5 0 7 5 4 10 -3 6 -8 10 -11 10 -2 0
-4 -4 -4 -10z"/>
<path d="M1180 3215 c7 -12 21 -22 32 -22 16 -2 17 1 7 13 -6 8 -14 12 -17 9
-3 -3 -12 1 -20 8 -13 10 -14 9 -2 -8z"/>
<path d="M1270 3220 c0 -5 5 -10 11 -10 5 0 7 5 4 10 -3 6 -8 10 -11 10 -2 0
-4 -4 -4 -10z"/>
<path d="M1820 3215 c7 -12 21 -22 32 -22 16 -2 17 1 7 13 -6 8 -14 12 -17 9
-3 -3 -12 1 -20 8 -13 10 -14 9 -2 -8z"/>
<path d="M279 3198 c-5 -18 -6 -38 -1 -34 7 8 12 36 6 36 -2 0 -4 -1 -5 -2z"/>
<path d="M388 3179 c-7 -13 -19 -24 -27 -24 -8 0 -17 -7 -19 -15 -5 -13 -3
-13 11 -1 11 9 17 10 17 2 0 -6 -3 -11 -7 -12 -14 -1 -68 -9 -79 -10 -6 -1
-11 -14 -11 -28 l0 -25 22 28 22 28 27 -28 c14 -16 26 -23 26 -17 0 7 -5 15
-11 19 -8 4 -7 9 2 14 15 10 41 1 33 -11 -3 -5 -1 -9 4 -9 6 0 13 7 16 16 8
21 8 26 -2 20 -4 -2 -14 0 -22 5 -12 8 -11 13 10 29 19 14 22 22 13 31 -8 8
-14 6 -25 -12z"/>
<path d="M708 3179 c-7 -13 -19 -24 -27 -24 -8 0 -17 -7 -19 -15 -5 -13 -3
-13 11 -1 11 9 17 10 17 2 0 -6 -3 -11 -7 -12 -5 0 -23 -2 -41 -4 -36 -3 -67
19 -58 42 3 8 1 11 -4 8 -6 -3 -10 -2 -10 3 0 5 -7 9 -15 9 -21 0 -18 -14 6
-27 11 -7 18 -18 15 -25 -3 -8 3 -17 15 -20 10 -4 19 -11 19 -18 0 -6 6 -3 13
6 8 11 17 14 26 8 17 -11 4 -34 -15 -27 -17 6 -19 -10 -2 -20 6 -4 16 -1 22 7
6 8 17 14 25 14 8 0 17 7 19 15 5 13 3 13 -11 1 -10 -7 -17 -9 -17 -3 0 5 6
12 13 14 20 8 36 -2 31 -20 -5 -14 -2 -13 10 2 17 21 22 41 8 32 -4 -2 -14 0
-22 5 -12 8 -11 13 10 29 19 14 22 22 13 31 -8 8 -14 6 -25 -12z"/>
<path d="M1028 3179 c-7 -13 -19 -24 -27 -24 -8 0 -17 -7 -19 -15 -5 -13 -3
-13 11 -1 11 9 17 10 17 2 0 -12 -12 -15 -44 -11 -17 2 -15 -3 9 -29 28 -29
50 -36 26 -7 -9 10 -9 15 1 18 18 7 39 -2 32 -13 -3 -5 -1 -9 4 -9 6 0 13 7
16 16 8 21 8 26 -2 20 -4 -2 -14 0 -22 5 -12 8 -11 13 10 29 19 14 22 22 13
31 -8 8 -14 6 -25 -12z"/>
<path d="M1348 3179 c-7 -13 -19 -24 -27 -24 -8 0 -17 -7 -19 -15 -5 -13 -3
-13 11 -1 11 9 17 10 17 2 0 -6 -3 -11 -7 -12 -5 0 -23 -2 -41 -4 -36 -3 -67
19 -58 42 3 8 1 11 -4 8 -6 -3 -10 -2 -10 3 0 5 -7 9 -15 9 -21 0 -18 -14 6
-27 11 -7 18 -18 15 -25 -3 -8 3 -17 15 -20 10 -4 19 -11 19 -18 0 -6 6 -3 13
6 8 11 17 14 26 8 17 -11 4 -34 -15 -27 -17 6 -19 -10 -2 -20 6 -4 16 -1 22 7
6 8 17 14 25 14 8 0 17 7 19 15 5 13 3 13 -11 1 -10 -7 -17 -9 -17 -3 0 5 6
12 13 14 20 8 36 -2 31 -20 -5 -14 -2 -13 10 2 17 21 22 41 8 32 -4 -2 -14 0
-22 5 -12 8 -11 13 10 29 19 14 22 22 13 31 -8 8 -14 6 -25 -12z"/>
<path d="M1668 3179 c-7 -13 -19 -24 -27 -24 -8 0 -17 -7 -19 -15 -5 -13 -3
-13 11 -1 11 9 17 10 17 2 0 -12 -12 -15 -44 -11 -17 2 -15 -3 9 -29 28 -29
50 -36 26 -7 -9 10 -9 15 1 18 18 7 39 -2 32 -13 -3 -5 -1 -9 4 -9 6 0 13 7
16 16 8 21 8 26 -2 20 -4 -2 -14 0 -22 5 -12 8 -11 13 10 29 19 14 22 22 13
31 -8 8 -14 6 -25 -12z"/>
<path d="M195 3181 c3 -6 -3 -15 -12 -21 -17 -10 -17 -10 2 -9 35 2 46 -1 40
-11 -3 -5 1 -10 10 -10 14 0 13 5 -7 29 -21 27 -47 44 -33 22z"/>
<path d="M321 3164 c-13 -13 -22 -27 -18 -30 3 -3 15 4 26 15 12 12 28 21 36
21 8 0 15 5 15 10 0 18 -34 8 -59 -16z"/>
<path d="M426 3174 c-8 -20 -8 -24 2 -23 21 4 34 -2 29 -14 -3 -9 4 -14 23
-14 18 0 27 5 26 15 -2 22 19 25 38 6 9 -9 19 -14 22 -11 5 5 -42 57 -51 57
-3 0 -4 -5 -2 -12 3 -17 -52 -17 -68 -1 -11 10 -14 10 -19 -3z"/>
<path d="M656 3174 c-4 -11 -13 -13 -28 -9 -22 7 -22 7 -5 -11 17 -18 19 -18
31 -1 7 9 21 17 30 17 9 0 16 5 16 10 0 16 -37 11 -44 -6z"/>
<path d="M746 3174 c-8 -20 -8 -24 2 -23 23 4 34 -3 28 -17 -4 -10 -1 -14 6
-12 7 3 13 10 13 16 0 5 3 13 7 17 3 4 5 0 4 -9 -1 -8 -5 -19 -9 -22 -11 -11
-8 -34 4 -34 5 0 8 4 4 9 -10 17 13 22 28 6 13 -13 16 -13 21 1 8 20 8 24 -1
23 -20 -3 -33 2 -33 12 0 8 4 8 14 0 9 -7 17 -8 20 -3 3 6 -5 13 -19 16 -14 4
-25 14 -25 23 0 15 -1 15 -13 -1 -12 -17 -15 -17 -29 -2 -14 14 -17 14 -22 0z"/>
<path d="M873 3178 c-15 -19 -12 -48 5 -48 12 0 12 3 2 15 -9 10 -9 15 -1 15
10 0 15 -13 12 -32 -2 -17 38 -2 43 16 6 24 -8 43 -19 25 -5 -8 -4 -10 3 -5 8
5 10 2 6 -9 -7 -19 -14 -14 -18 11 -3 23 -20 29 -33 12z"/>
<path d="M961 3164 c-13 -13 -22 -27 -18 -30 3 -3 15 4 26 15 12 12 28 21 36
21 8 0 15 5 15 10 0 18 -34 8 -59 -16z"/>
<path d="M1066 3174 c-8 -20 -8 -24 2 -23 21 4 34 -2 29 -14 -3 -9 4 -14 23
-14 18 0 27 5 26 15 -2 22 19 25 38 6 9 -9 19 -14 22 -11 5 5 -42 57 -51 57
-3 0 -4 -5 -2 -12 3 -17 -52 -17 -68 -1 -11 10 -14 10 -19 -3z"/>
<path d="M1296 3174 c-4 -11 -13 -13 -28 -9 -22 7 -22 7 -5 -11 17 -18 19 -18
31 -1 7 9 21 17 30 17 9 0 16 5 16 10 0 16 -37 11 -44 -6z"/>
<path d="M1386 3174 c-8 -20 -8 -24 2 -23 23 4 34 -3 28 -17 -4 -10 -1 -14 6
-12 7 3 13 10 13 16 0 5 3 13 7 17 3 4 5 0 4 -9 -1 -8 -5 -19 -9 -22 -11 -11
-8 -34 4 -34 5 0 8 4 4 9 -10 17 13 22 28 6 13 -13 16 -13 21 1 8 20 8 24 -1
23 -20 -3 -33 2 -33 12 0 8 4 8 14 0 9 -7 17 -8 20 -3 3 6 -5 13 -19 16 -14 4
-25 14 -25 23 0 15 -1 15 -13 -1 -12 -17 -15 -17 -29 -2 -14 14 -17 14 -22 0z"/>
<path d="M1513 3178 c-15 -19 -12 -48 5 -48 12 0 12 3 2 15 -9 10 -9 15 -1 15
10 0 15 -13 12 -32 -2 -17 38 -2 43 16 6 24 -8 43 -19 25 -5 -8 -4 -10 3 -5 8
5 10 2 6 -9 -7 -19 -14 -14 -18 11 -3 23 -20 29 -33 12z"/>
<path d="M1601 3164 c-13 -13 -22 -27 -18 -30 3 -3 15 4 26 15 12 12 28 21 36
21 8 0 15 5 15 10 0 18 -34 8 -59 -16z"/>
<path d="M1706 3174 c-8 -20 -8 -24 2 -23 21 4 34 -2 29 -14 -3 -9 4 -14 23
-14 19 0 27 5 26 16 -1 11 6 15 22 14 20 -3 21 -1 10 17 -14 22 -29 27 -25 8
3 -17 -52 -17 -68 -1 -11 10 -14 10 -19 -3z"/>
<path d="M1820 3179 c0 -5 9 -13 21 -19 11 -7 18 -18 15 -25 -3 -8 3 -17 15
-20 10 -4 19 -11 19 -18 0 -8 -3 -8 -12 1 -21 21 -32 13 -12 -10 14 -17 15
-19 2 -10 -15 12 -17 11 -15 -7 2 -30 14 -26 37 11 18 30 18 33 2 42 -23 13
-33 28 -27 44 3 7 0 10 -5 7 -6 -3 -10 -2 -10 3 0 5 -7 9 -15 9 -8 0 -15 -4
-15 -8z"/>
<path d="M191 3140 c-17 -10 -25 -50 -11 -50 7 0 7 -6 0 -19 -5 -11 -10 -24
-10 -29 0 -15 47 -21 61 -8 9 8 10 8 5 -1 -4 -7 -2 -13 4 -13 6 0 10 8 8 18
-4 17 -10 18 -40 7 -13 -5 -17 -2 -15 13 0 12 4 20 7 20 19 -2 30 3 25 12 -3
5 -12 7 -19 4 -8 -3 -17 0 -22 7 -5 9 -2 10 9 6 20 -8 31 8 20 27 -5 10 -13
12 -22 6z"/>
<path d="M393 3144 c4 -5 20 -10 35 -12 15 -2 23 0 19 4 -4 5 -20 10 -35 12
-15 2 -23 0 -19 -4z"/>
<path d="M510 3140 c0 -5 5 -10 10 -10 6 0 10 5 10 10 0 6 -4 10 -10 10 -5 0
-10 -4 -10 -10z"/>
<path d="M713 3144 c4 -5 20 -10 35 -12 15 -2 23 0 19 4 -4 5 -20 10 -35 12
-15 2 -23 0 -19 -4z"/>
<path d="M1033 3144 c4 -5 20 -10 35 -12 15 -2 23 0 19 4 -4 5 -20 10 -35 12
-15 2 -23 0 -19 -4z"/>
<path d="M1150 3140 c0 -5 5 -10 10 -10 6 0 10 5 10 10 0 6 -4 10 -10 10 -5 0
-10 -4 -10 -10z"/>
<path d="M1353 3144 c4 -5 20 -10 35 -12 15 -2 23 0 19 4 -4 5 -20 10 -35 12
-15 2 -23 0 -19 -4z"/>
<path d="M1673 3144 c4 -5 20 -10 35 -12 15 -2 23 0 19 4 -4 5 -20 10 -35 12
-15 2 -23 0 -19 -4z"/>
<path d="M1790 3140 c0 -5 5 -10 10 -10 6 0 10 5 10 10 0 6 -4 10 -10 10 -5 0
-10 -4 -10 -10z"/>
<path d="M1830 3140 c0 -5 5 -10 10 -10 6 0 10 5 10 10 0 6 -4 10 -10 10 -5 0
-10 -4 -10 -10z"/>
<path d="M520 3120 c-8 -5 -22 -7 -30 -5 -8 3 -21 -4 -28 -15 -8 -13 -8 -20
-2 -20 6 0 14 8 17 17 6 15 7 14 13 -3 9 -24 3 -41 -18 -49 -13 -5 -13 -2 3
15 10 11 13 20 7 20 -6 0 -17 -9 -25 -21 -12 -17 -19 -19 -36 -10 -16 9 -22 8
-30 -6 -9 -16 -10 -15 -8 4 0 12 3 20 6 18 2 -3 10 0 18 6 10 9 17 8 28 -1 9
-8 15 -9 15 -2 0 6 -5 14 -10 17 -14 9 -1 27 13 19 7 -4 7 -1 -1 7 -11 12 -16
10 -33 -11 -19 -25 -19 -25 -35 -5 -16 20 -16 20 -10 -1 4 -14 1 -28 -9 -38
-27 -26 -2 -44 33 -23 7 5 12 3 12 -5 0 -9 3 -9 10 2 5 8 10 11 10 5 0 -6 32
-10 75 -10 71 0 88 6 65 20 -6 4 -8 10 -5 15 3 5 1 11 -5 15 -5 3 -10 -3 -10
-14 0 -12 -4 -21 -8 -21 -16 0 -7 40 10 46 10 3 15 11 12 17 -4 7 6 -1 22 -16
24 -23 26 -29 14 -37 -18 -11 -6 -24 25 -26 14 0 25 5 25 12 0 7 4 15 9 18 5
3 8 -2 7 -11 -1 -13 8 -17 37 -17 34 -1 49 17 16 20 -8 1 -20 2 -28 3 -22 2
-6 12 23 15 14 2 23 -1 20 -5 -3 -5 -1 -9 4 -9 17 0 22 13 9 29 -11 14 -10 15
7 1 18 -14 18 -13 12 10 -6 23 -6 23 9 -3 13 -23 19 -26 31 -16 11 9 17 9 29
-1 23 -19 18 4 -6 26 -13 12 -19 14 -17 5 5 -22 -20 -24 -32 -2 -14 28 -28 26
-42 -4 -7 -15 -17 -24 -25 -21 -17 7 -55 -8 -77 -30 -13 -12 -17 -13 -15 -3 5
23 -19 58 -51 74 -34 18 -31 17 -50 5z m19 -26 c-16 -19 -29 -18 -29 4 0 14 2
15 10 2 9 -14 14 -7 11 13 -1 5 3 6 9 2 8 -5 7 -11 -1 -21z m-21 -44 c-7 -10
-14 -18 -15 -16 -6 6 9 36 18 36 5 0 4 -9 -3 -20z"/>
<path d="M1160 3120 c-8 -5 -22 -7 -30 -5 -8 3 -21 -4 -28 -15 -8 -13 -8 -20
-2 -20 6 0 14 8 17 17 6 15 7 14 13 -3 9 -24 3 -41 -18 -49 -13 -5 -13 -2 3
15 10 11 13 20 7 20 -6 0 -17 -9 -25 -21 -12 -17 -19 -19 -36 -10 -16 9 -22 8
-30 -6 -9 -16 -10 -15 -8 4 0 12 3 20 6 18 2 -3 10 0 18 6 10 9 17 8 28 -1 9
-8 15 -9 15 -2 0 6 -5 14 -10 17 -14 9 -1 27 13 19 7 -4 7 -1 -1 7 -11 12 -16
10 -33 -11 -19 -25 -19 -25 -35 -5 -16 20 -16 20 -10 -1 4 -14 1 -28 -9 -38
-27 -26 -2 -44 33 -23 7 5 12 3 12 -5 0 -9 3 -9 10 2 5 8 10 11 10 5 0 -6 32
-10 75 -10 71 0 88 6 65 20 -6 4 -8 10 -5 15 3 5 1 11 -5 15 -5 3 -10 -3 -10
-14 0 -12 -4 -21 -8 -21 -16 0 -7 40 10 46 10 3 15 11 12 17 -4 7 6 -1 22 -16
24 -23 26 -29 14 -37 -18 -11 -6 -24 25 -26 14 0 25 5 25 12 0 7 4 15 9 18 5
3 8 -2 7 -11 -1 -13 8 -17 37 -17 34 -1 49 17 16 20 -8 1 -20 2 -28 3 -22 2
-6 12 23 15 14 2 23 -1 20 -5 -3 -5 -1 -9 4 -9 17 0 22 13 9 29 -11 14 -10 15
7 1 18 -14 18 -13 12 10 -6 23 -6 23 9 -3 13 -23 19 -26 31 -16 11 9 17 9 29
-1 23 -19 18 4 -6 26 -13 12 -19 14 -17 5 5 -22 -20 -24 -32 -2 -14 28 -28 26
-42 -4 -7 -15 -17 -24 -25 -21 -17 7 -55 -8 -77 -30 -13 -12 -17 -13 -15 -3 5
23 -19 58 -51 74 -34 18 -31 17 -50 5z m19 -26 c-16 -19 -29 -18 -29 4 0 14 2
15 10 2 9 -14 14 -7 11 13 -1 5 3 6 9 2 8 -5 7 -11 -1 -21z m-21 -44 c-7 -10
-14 -18 -15 -16 -6 6 9 36 18 36 5 0 4 -9 -3 -20z"/>
<path d="M1800 3120 c-8 -5 -22 -7 -30 -5 -8 3 -21 -4 -28 -15 -8 -13 -8 -20
-2 -20 6 0 14 8 17 17 6 15 7 14 13 -3 9 -24 3 -41 -18 -49 -13 -5 -13 -2 3
15 10 11 13 20 7 20 -6 0 -17 -9 -25 -21 -12 -17 -19 -19 -36 -10 -16 9 -22 8
-30 -6 -9 -16 -10 -15 -8 4 0 12 3 20 6 18 2 -3 10 0 18 6 10 9 17 8 28 -1 9
-8 15 -9 15 -2 0 6 -5 14 -10 17 -14 9 -1 27 13 19 7 -4 7 -1 -1 7 -11 12 -16
10 -33 -11 -19 -25 -19 -25 -35 -5 -16 20 -16 20 -10 -1 4 -14 1 -28 -9 -38
-27 -26 -2 -44 33 -23 7 5 12 3 12 -5 0 -9 3 -9 10 2 5 8 10 11 10 5 0 -6 32
-10 75 -10 71 0 88 6 65 20 -6 4 -8 10 -5 15 3 5 1 11 -5 15 -5 3 -10 -3 -10
-14 0 -12 -4 -21 -9 -21 -16 0 -6 35 14 47 22 13 23 22 3 34 -17 11 -20 11
-38 -1z m19 -26 c-16 -19 -29 -18 -29 4 0 14 2 15 10 2 9 -14 14 -7 11 13 -1
5 3 6 9 2 8 -5 7 -11 -1 -21z m-21 -44 c-7 -10 -14 -18 -15 -16 -6 6 9 36 18
36 5 0 4 -9 -3 -20z"/>
<path d="M225 3111 c-7 -13 12 -24 28 -16 13 7 -9 -12 -40 -33 -16 -11 -16
-11 4 -2 18 8 25 6 37 -12 11 -16 26 -22 51 -23 41 0 42 19 1 22 -33 2 -39 7
-41 31 -2 35 -26 54 -40 33z"/>
<path d="M860 3100 c-7 -14 -7 -20 0 -20 6 0 6 -7 -2 -20 -7 -11 -16 -20 -21
-20 -4 0 -6 4 -2 9 13 22 -20 22 -38 0 -12 -13 -18 -17 -14 -7 8 23 -3 30 -20
13 -25 -26 2 -42 35 -22 7 5 12 3 12 -5 0 -9 3 -9 10 2 5 8 10 11 10 5 0 -6
32 -10 75 -10 71 0 88 6 65 20 -6 4 -8 10 -5 15 3 5 1 11 -5 15 -5 3 -10 -3
-10 -14 0 -12 -4 -21 -9 -21 -14 0 -8 34 8 44 14 9 34 -11 25 -26 -3 -4 -1 -8
5 -8 22 0 19 18 -7 42 -25 23 -62 34 -62 18 0 -15 14 -19 29 -8 12 9 11 7 -2
-7 -17 -19 -17 -19 -33 3 -19 27 -30 28 -44 2z m33 -37 c-3 -6 -12 -14 -21
-18 -13 -5 -13 -2 3 15 10 11 13 20 7 20 -7 0 -9 7 -5 17 6 15 7 14 13 -3 4
-10 5 -24 3 -31z m25 -13 c-7 -10 -14 -18 -15 -16 -6 6 9 36 18 36 5 0 4 -9
-3 -20z"/>
<path d="M1500 3100 c-7 -14 -7 -20 0 -20 6 0 6 -7 -2 -20 -7 -11 -16 -20 -21
-20 -4 0 -6 4 -2 9 13 22 -20 22 -38 0 -12 -13 -18 -17 -14 -7 8 23 -3 30 -20
13 -25 -26 2 -42 35 -22 7 5 12 3 12 -5 0 -9 3 -9 10 2 5 8 10 11 10 5 0 -6
32 -10 75 -10 71 0 88 6 65 20 -6 4 -8 10 -5 15 3 5 1 11 -5 15 -5 3 -10 -3
-10 -14 0 -12 -4 -21 -9 -21 -14 0 -8 34 8 44 14 9 34 -11 25 -26 -3 -4 -1 -8
5 -8 22 0 19 18 -7 42 -25 23 -62 34 -62 18 0 -15 14 -19 29 -8 12 9 11 7 -2
-7 -17 -19 -17 -19 -33 3 -19 27 -30 28 -44 2z m33 -37 c-3 -6 -12 -14 -21
-18 -13 -5 -13 -2 3 15 10 11 13 20 7 20 -7 0 -9 7 -5 17 6 15 7 14 13 -3 4
-10 5 -24 3 -31z m25 -13 c-7 -10 -14 -18 -15 -16 -6 6 9 36 18 36 5 0 4 -9
-3 -20z"/>
<path d="M310 3098 c0 -9 -7 -19 -16 -22 -22 -9 -13 -16 25 -21 40 -5 46 7 16
35 -20 18 -25 20 -25 8z m23 -21 c3 -7 -3 -13 -14 -13 -13 0 -15 3 -7 13 6 7
12 13 13 13 2 0 5 -6 8 -13z"/>
<path d="M630 3100 c0 -5 5 -10 11 -10 5 0 7 5 4 10 -3 6 -8 10 -11 10 -2 0
-4 -4 -4 -10z"/>
<path d="M1270 3100 c0 -5 5 -10 11 -10 5 0 7 5 4 10 -3 6 -8 10 -11 10 -2 0
-4 -4 -4 -10z"/>
<path d="M573 3071 c1 -22 12 -28 21 -12 3 5 -1 14 -9 21 -11 9 -14 8 -12 -9z"/>
<path d="M1213 3071 c1 -22 12 -28 21 -12 3 5 -1 14 -9 21 -11 9 -14 8 -12 -9z"/>
<path d="M410 3066 c0 -2 7 -7 16 -10 8 -3 12 -2 9 4 -6 10 -25 14 -25 6z"/>
<path d="M1050 3066 c0 -2 7 -7 16 -10 8 -3 12 -2 9 4 -6 10 -25 14 -25 6z"/>
<path d="M1690 3066 c0 -2 7 -7 16 -10 8 -3 12 -2 9 4 -6 10 -25 14 -25 6z"/>
<path d="M189 2933 c-10 -2 -16 -16 -17 -39 -1 -25 2 -33 11 -27 9 5 9 3 1 -8
-7 -9 -12 -59 -12 -132 0 -110 2 -118 22 -129 25 -14 26 -13 37 4 5 7 9 8 9 3
0 -12 99 -13 117 -2 6 4 14 4 17 -1 5 -9 47 -9 63 1 5 4 13 3 17 0 11 -12 146
-10 146 2 0 6 3 7 8 0 9 -13 105 -14 114 0 5 6 8 6 8 0 0 -11 89 -13 107 -2 6
4 14 4 17 -1 5 -9 47 -9 63 1 5 4 13 3 17 -1 12 -11 30 -8 46 8 8 9 12 11 8 6
-14 -17 -9 -23 17 -23 14 0 22 4 18 10 -4 6 -1 7 8 1 18 -11 129 -13 135 -2 3
5 11 5 17 1 18 -11 167 -11 160 0 -4 6 -1 7 8 1 18 -11 129 -12 136 -2 2 5 10
5 16 0 14 -10 117 -9 134 1 6 4 14 4 17 -1 5 -9 47 -9 63 1 7 4 14 3 18 -3 4
-7 12 -7 24 0 10 5 22 6 25 2 10 -9 116 -10 116 0 0 4 7 5 15 2 9 -4 15 0 15
10 0 9 -6 16 -12 16 -10 0 -10 2 0 8 9 6 12 41 11 130 -1 72 -6 119 -11 116
-5 -4 -4 3 3 14 7 12 10 24 6 28 -11 11 -187 10 -187 -1 0 -6 -3 -6 -8 0 -10
14 -624 14 -634 0 -5 -7 -8 -7 -8 0 0 12 -428 14 -447 2 -6 -4 -14 -4 -16 0
-7 11 -399 10 -416 -1 -10 -6 -12 -5 -7 2 4 7 6 11 4 11 -2 -1 -10 -3 -19 -6z
m622 -70 c13 -16 12 -17 -3 -4 -10 7 -18 15 -18 17 0 8 8 3 21 -13z m640 0
c13 -16 12 -17 -3 -4 -10 7 -18 15 -18 17 0 8 8 3 21 -13z"/>
<path d="M172 2342 l3 -167 855 -3 c470 -1 865 0 878 3 22 5 22 6 20 168 l-3
162 -878 2 -877 3 2 -168z"/>
</g>
</svg>
