<svg width="265" height="90" viewBox="0 0 265 90" fill="none" xmlns="http://www.w3.org/2000/svg">
<g clip-path="url(#clip0_137_13)">
<mask id="mask0_137_13" style="mask-type:luminance" maskUnits="userSpaceOnUse" x="0" y="0" width="265" height="90">
<path d="M265 0H0V90H265V0Z" fill="white"/>
</mask>
<g mask="url(#mask0_137_13)">
<path fill-rule="evenodd" clip-rule="evenodd" d="M136.051 23.3735L136.116 41.0531L175.328 40.9034L175.272 23.3266L186.453 23.2798C186.556 34.0768 186.564 43.5722 186.657 54.3692C185.906 62.3756 181.874 67.6384 175.811 69.352L128.838 69.5299V57.6092L175.719 57.4313V51.8128L138.702 51.9532C137.122 52.0582 135.539 51.8087 134.067 51.2228C129.326 49.2376 126.697 45.4232 126.178 39.7796L126.122 23.3921L136.051 23.3735ZM71.4275 52.4027L110.159 52.2622C110.798 52.2622 110.835 52.1779 111.086 52.8521C111.526 54.212 111.526 55.6781 111.086 57.038C110.872 57.7403 110.9 57.7216 110.251 57.7216L71.4459 57.8621L71.4275 52.4027ZM71.3719 35.8186L118.428 35.6407L118.381 23.4671L75.4601 23.6263C74.1321 23.5565 72.8029 23.7344 71.5387 24.1507C69.154 25.0766 67.0132 26.5462 65.2831 28.4449C63.5529 30.3437 62.2802 32.6204 61.5639 35.0975C61.1994 36.2458 61.0454 37.4518 61.1096 38.656L61.397 69.661L107.201 69.4925C108.265 69.5189 109.328 69.4279 110.372 69.2209C112.165 68.7766 113.847 67.9601 115.31 66.8236C116.773 65.6869 117.987 64.2551 118.873 62.6191C119.996 60.5636 120.623 58.2691 120.702 55.9225C120.781 53.5759 120.31 51.2435 119.327 49.1158C117.473 44.9393 113.941 41.8304 109.473 41.2873C108.499 41.1922 107.521 41.1578 106.543 41.1842L71.3904 41.3248L71.3719 35.8186ZM11.8196 69.6422L17.2241 57.9745L37.9617 57.8995L43.904 69.6892L55.5568 69.6422C49.0243 56.1703 42.4826 42.667 35.9315 29.1325C34.2536 25.649 31.0461 22.9988 27.3102 23.1299C23.5743 23.261 20.1999 26.0236 18.5035 29.5633L0.0648804 69.661L11.8196 69.6422ZM22.6288 45.8102L27.44 36.6427L32.4644 45.9413L22.6288 45.8102Z" fill="#231F20"/>
<path fill-rule="evenodd" clip-rule="evenodd" d="M203.408 62.9749C203.037 72.0021 205.263 77.0775 216.646 84.7561C217.518 91.3767 204.344 89.8878 201.758 86.9005C197.652 82.1623 196.391 78.8286 195.928 74.727C194.295 60.2686 195.093 47.3646 203.853 37.8318C203.077 34.0195 203.011 30.0943 203.658 26.2576C202.941 25.9647 202.264 25.5774 201.647 25.1058C201.103 24.6876 200.627 24.1851 200.238 23.6169C197.828 20.0959 200.821 15.2826 204.614 14.4773C204.821 12.4092 205.341 10.3851 206.152 8.47479C208.006 4.57926 212.049 2.17265 216.025 0.983382C221.652 -0.71155 230.737 -0.177799 235.91 3.16524C238.287 4.7561 239.985 7.18827 240.674 9.98243C241.109 11.6307 241.299 13.3346 241.24 15.0391C241.275 16.0542 241.25 17.0704 241.166 18.0825C241.121 18.5788 241.073 19.0845 241.037 19.5996C242.741 22.7928 243.168 26.9224 242.89 30.5182C249.807 33.2152 255.035 38.6934 255.22 44.958C261.634 53.0581 264.991 58.8358 265 66.1119C265 71.7304 263.285 79.2219 259.104 88.4737C251.196 90.3466 243.391 90.2155 236.271 89.7472C237.199 86.1046 236.271 84.8124 234.547 82.7709C232.471 80.3269 232.879 77.9857 234.344 75.0454C235.557 72.6106 237.718 70.6911 240.165 68.8557C243.837 66.3075 247.269 63.4237 250.418 60.2404C252.689 57.8058 253.143 55.0995 253.589 51.3912C250.808 59.0044 247.201 61.9261 240.277 66.4584C235.826 69.6891 233.166 72.0769 231.423 76.6374C230.802 79.2312 231.043 81.4038 232.601 82.7803C234.78 84.7281 236.467 88.7641 232.962 89.4945C222.914 91.6014 216.73 87.6216 216.219 76.6842C216.057 72.1009 216.479 67.5156 217.471 63.0405C213.216 65.6811 214.096 75.6259 214.635 81.0573C206.291 74.8393 205.475 70.0917 203.408 63.0217" fill="#231F20"/>
<path fill-rule="evenodd" clip-rule="evenodd" d="M205.328 14.8519C205.518 12.6236 206.046 10.4381 206.894 8.37185C209.971 1.91987 219.604 -0.683392 225.917 0.533963C218.278 2.23826 212.752 4.52313 210.232 11.0313C209.87 11.9677 208.702 16.5562 208.914 18.4384C210.964 11.5932 212.355 8.55914 216.072 5.68431C218.338 4.03154 220.931 2.89133 223.673 2.34126C225.646 1.78763 227.69 1.53513 229.736 1.59213C231.798 1.65812 233.81 2.25783 235.576 3.33387C239.785 6.14315 241.768 12.1644 239.738 20.1896C238.163 24.5252 231.757 24.235 226.713 24.7312C223.136 25.9954 215.061 27.7091 207.544 26.0984C204.243 25.3961 201.119 24.3191 200.191 20.8637C199.542 18.4666 203.065 14.777 205.328 14.8519ZM216.711 14.365L216.933 13.0446L219.131 12.361L220.113 13.2975L221.346 12.9042L218.064 9.59856C217.964 9.48156 217.837 9.39147 217.695 9.33636C217.475 9.23615 217.226 9.21984 216.997 9.29048C216.767 9.36111 216.57 9.51387 216.442 9.7203C216.327 9.86235 216.253 10.0343 216.23 10.2166L215.451 14.7302L216.711 14.365ZM217.147 11.6868L218.195 11.3778L217.388 10.6286L217.147 11.6868ZM222.515 10.7504L222.681 11.2842L226.853 9.97313C226.867 9.78176 226.811 9.59195 226.696 9.4394L222.515 10.7504ZM222.023 9.13035L227.011 7.57589L226.64 6.37725L221.865 7.88492C221.569 8.04639 221.325 8.28981 221.16 8.58669C220.997 8.88357 220.919 9.22161 220.938 9.56114L221.949 12.7637L226.797 11.2373C227.039 11.1818 227.258 11.0546 227.427 10.8721C227.637 10.6863 227.784 10.4405 227.85 10.1676C227.916 9.89478 227.899 9.60798 227.798 9.34574C227.731 9.16254 227.628 8.9949 227.495 8.85278C227.361 8.71065 227.202 8.59694 227.024 8.51834C226.847 8.43975 226.656 8.3979 226.463 8.39526C226.269 8.39261 226.077 8.42924 225.898 8.50296L222.189 9.66413L222.023 9.13035ZM228.512 5.79668L227.447 6.11505L227.928 7.707C228.016 7.9536 228.175 8.16776 228.386 8.32146C228.595 8.47518 228.847 8.56127 229.106 8.5685C229.28 8.57397 229.453 8.54535 229.615 8.48421L233.546 7.2575L233.712 7.80999L228.744 9.36446L229.106 10.5257L234.083 8.96181C234.381 8.78016 234.61 8.50491 234.739 8.17838C234.865 7.85184 234.883 7.49211 234.789 7.15451C234.454 6.10571 234.176 5.17863 233.861 4.12983L232.674 4.5044L233.203 6.21809L229.041 7.4916L228.512 5.79668Z" fill="#F48120"/>
<path fill-rule="evenodd" clip-rule="evenodd" d="M212.252 30.6212C211.326 29.048 209.369 28.4768 207.617 30.6212C205.578 33.0653 205.967 38.7962 207.859 41.1655C208.091 41.5049 208.392 41.7928 208.739 42.0118C209.086 42.2306 209.474 42.376 209.878 42.439C211.854 42.6074 212.994 41.4089 212.873 39.7234C212.766 39.0623 212.439 38.458 211.947 38.0096C211.566 37.3921 211.323 36.6989 211.233 35.9776C211.248 35.0786 211.536 34.2061 212.057 33.4774C212.791 32.288 212.985 31.6045 212.308 30.668" fill="white"/>
<path d="M212.252 30.6212C211.326 29.048 209.369 28.4768 207.617 30.6212C205.578 33.0653 205.967 38.7962 207.859 41.1655C208.091 41.5049 208.392 41.7928 208.739 42.0118C209.086 42.2306 209.474 42.376 209.878 42.439C211.854 42.6074 212.994 41.4089 212.873 39.7234C212.766 39.0623 212.439 38.458 211.947 38.0096C211.566 37.3921 211.323 36.6989 211.233 35.9776C211.248 35.0786 211.536 34.2061 212.057 33.4774C212.735 32.26 212.892 31.642 212.252 30.6212Z" stroke="#231F20" stroke-width="0.65" stroke-miterlimit="22.93"/>
<path fill-rule="evenodd" clip-rule="evenodd" d="M206.838 30.0877C207.488 29.1838 208.418 28.5247 209.481 28.2148C209.982 28.0649 209.915 27.5593 209.193 27.503C208.031 27.5803 206.869 27.3545 205.818 26.8477C202.964 29.7319 206.838 30.3779 206.838 30.0502" fill="white"/>
<path d="M206.838 30.0877C207.488 29.1838 208.418 28.5247 209.481 28.2148C209.982 28.0649 209.915 27.5593 209.193 27.503C208.031 27.5803 206.869 27.3545 205.818 26.8477C202.964 29.7692 206.838 30.4154 206.838 30.0877Z" stroke="#231F20" stroke-width="0.65" stroke-miterlimit="22.93"/>
<path fill-rule="evenodd" clip-rule="evenodd" d="M221.503 30.5276C220.215 28.9824 217.796 28.3269 215.544 30.5276C212.929 33.0372 213.421 38.9555 215.848 41.3714C216.528 42.1047 217.447 42.5667 218.435 42.6731C220.966 42.8415 223.071 41.4182 222.273 39.8637C221.346 37.9908 219.492 35.2752 222.152 32.288C222.495 31.9041 222.07 31.2018 221.503 30.5276Z" fill="white"/>
<path d="M221.503 30.5276C220.215 28.9824 217.796 28.3269 215.544 30.5276C212.929 33.0372 213.421 38.9555 215.848 41.3714C216.528 42.1047 217.447 42.5667 218.435 42.6731C220.966 42.8415 223.071 41.4182 222.273 39.8637C221.346 37.9908 219.492 35.2752 222.152 32.288C222.495 31.9041 222.07 31.2018 221.503 30.5276Z" stroke="#231F20" stroke-width="0.65" stroke-miterlimit="22.93"/>
<path fill-rule="evenodd" clip-rule="evenodd" d="M220.698 27.7183C222.669 29.3464 223.984 31.6462 224.393 34.185C224.802 36.7237 224.28 39.3262 222.922 41.5026C221.893 43.1601 220.827 44.3119 218.769 44.3119C217.834 44.2861 216.903 44.1732 215.988 43.9747C214.912 42.7761 213.884 42.5139 213.078 44.1901C208.146 45.4356 206.765 41.8959 204.873 41.5588C204.651 41.5588 204.456 41.746 204.103 42.1956C201.508 45.5292 201.322 51.1759 203.835 55.062C207.153 60.1375 214.366 60.1749 219.335 57.8151C224.683 55.2681 226.974 48.3103 228.058 42.9072C229.235 36.9796 229.374 29.9845 226.288 25.8174C224.598 26.9035 222.668 27.5472 220.67 27.6903L220.698 27.7183ZM216.498 45.6697C216.785 46.9432 215.876 47.6548 214.793 47.9358C213.207 48.3478 212.289 47.2147 213.356 46.5124C215.005 45.4356 214.912 44.059 216.498 45.6697ZM207.635 45.9225C209.054 44.4804 208.97 45.7071 210.417 46.6716C211.343 47.299 210.556 48.3198 209.138 47.9452C208.163 47.6923 207.348 47.065 207.608 45.9225" fill="white"/>
<path d="M220.698 27.7183C222.669 29.3464 223.984 31.6462 224.393 34.185C224.802 36.7237 224.28 39.3262 222.922 41.5026C221.893 43.1601 220.827 44.3119 218.769 44.3119C217.834 44.2861 216.903 44.1732 215.988 43.9747C214.912 42.7761 213.884 42.5139 213.078 44.1901C208.146 45.4356 206.765 41.8959 204.873 41.5588C204.651 41.5588 204.456 41.746 204.103 42.1956C201.508 45.5292 201.322 51.1759 203.835 55.062C207.153 60.1375 214.366 60.1749 219.335 57.8151C224.683 55.2681 226.974 48.3103 228.058 42.9072C229.235 36.9796 229.374 29.9845 226.288 25.8174C224.608 26.9091 222.688 27.5622 220.698 27.7183ZM216.526 45.6978C216.813 46.9713 215.904 47.683 214.821 47.964C213.235 48.3759 212.317 47.2429 213.382 46.5406C214.996 45.4636 214.903 44.0871 216.489 45.6885L216.526 45.6978ZM207.663 45.9507C209.082 44.5086 208.998 45.7353 210.444 46.6998C211.371 47.3271 210.584 48.3478 209.165 47.9733C208.183 47.7205 207.367 47.0931 207.626 45.9507H207.663Z" stroke="#231F20" stroke-width="0.65" stroke-miterlimit="22.93"/>
<path d="M0 86.3106L3.21679 77.8828H4.40337L7.83338 86.3106H6.55408L5.62707 83.7448H2.13216L1.20514 86.3106H0ZM2.41028 82.8364H5.24697L4.37556 80.4954C4.10673 79.7838 3.91206 79.1938 3.78227 78.735C3.67524 79.2867 3.52332 79.8285 3.32803 80.355L2.41028 82.8364Z" fill="#231F20"/>
<path d="M9.24247 77.8452H14.4894V86.2731H13.377V78.7817H10.3549V83.136C10.373 83.7876 10.3326 84.4395 10.2344 85.0838C10.1696 85.4457 9.98689 85.7753 9.71526 86.0202C9.43685 86.2593 9.07914 86.3831 8.71408 86.3667C8.40021 86.3622 8.08838 86.315 7.78705 86.2262L7.98171 85.2336C8.12751 85.3011 8.28495 85.3394 8.44522 85.346C8.55559 85.3535 8.66597 85.3314 8.76522 85.2821C8.86448 85.2327 8.94915 85.1579 9.01072 85.065C9.17886 84.6371 9.24246 84.1746 9.19613 83.7165L9.24247 77.8452Z" fill="#231F20"/>
<path d="M16.0005 77.8452H17.1037V81.4598H19.1061C19.7984 81.4173 20.4916 81.5292 21.1362 81.7875C21.541 81.9852 21.8676 82.3152 22.0633 82.724C22.2454 83.0834 22.3408 83.4813 22.3414 83.8851C22.3472 84.525 22.1081 85.1423 21.6739 85.6082C21.3337 85.8933 20.9399 86.106 20.516 86.2331C20.0921 86.3603 19.6472 86.3993 19.2081 86.348H16.0284L16.0005 77.8452ZM17.1037 85.3367H19.1339C19.4182 85.3751 19.7073 85.356 19.9842 85.2804C20.2612 85.205 20.5204 85.0743 20.7468 84.8966C20.9914 84.596 21.1227 84.2178 21.1177 83.829C21.1252 83.5197 21.0305 83.2166 20.8489 82.9674C20.6685 82.7336 20.4127 82.5713 20.1259 82.5086C19.6202 82.4262 19.1081 82.3917 18.5962 82.4057H17.1037V85.3367Z" fill="#231F20"/>
<path d="M28.2836 86.3106V82.565H27.0042C26.7962 82.5599 26.5882 82.5756 26.3831 82.6118C26.2039 82.6547 26.0342 82.7309 25.8825 82.8365C25.6644 82.9907 25.4733 83.1806 25.3171 83.3984C25.1039 83.6699 24.8443 84.0539 24.5199 84.5688L23.4074 86.3294H22.0168L23.4722 84.0258C23.7322 83.6126 24.0439 83.2349 24.3993 82.902C24.6024 82.7324 24.8268 82.5908 25.0668 82.4807C24.4025 82.4291 23.7752 82.1519 23.2869 81.6941C22.9057 81.2841 22.6993 80.7393 22.7121 80.177C22.7058 79.7283 22.8246 79.287 23.0551 78.9035C23.2651 78.5369 23.5919 78.2529 23.9822 78.0981C24.5299 77.9211 25.1039 77.8419 25.6786 77.864H29.3867V86.2919L28.2836 86.3106ZM28.2836 78.8192H25.6323C25.1486 78.7787 24.6671 78.9186 24.2789 79.2125C24.138 79.3329 24.0256 79.4838 23.9503 79.6541C23.8749 79.8243 23.8382 80.0094 23.8431 80.1957C23.8422 80.4651 23.9195 80.7288 24.0655 80.9543C24.2201 81.1911 24.4485 81.369 24.7145 81.4599C25.0989 81.5775 25.4996 81.6314 25.9011 81.6191H28.2836V78.8192Z" fill="#231F20"/>
<path d="M30.8978 86.3106V77.8828H32.0102V81.3568H36.358V77.8828H37.4704V86.3106H36.358V82.3215H32.0102V86.3106H30.8978Z" fill="#231F20"/>
<path d="M44.9331 83.3422L46.0455 83.6231C45.8722 84.4489 45.4281 85.1914 44.7847 85.7302C44.1534 86.2199 43.3742 86.4745 42.5784 86.4512C41.8058 86.4845 41.0398 86.2928 40.372 85.8986C39.7914 85.5016 39.3423 84.937 39.0835 84.2786C38.7842 83.5616 38.6327 82.7906 38.6386 82.0126C38.6201 81.2152 38.7917 80.4251 39.1392 79.7089C39.4504 79.075 39.9495 78.5545 40.5668 78.22C41.1876 77.8729 41.8874 77.6953 42.597 77.7049C43.3499 77.6791 44.09 77.9063 44.7012 78.3511C45.2898 78.8045 45.7109 79.4441 45.8971 80.1677L44.8125 80.4299C44.6743 79.9016 44.3762 79.4302 43.9597 79.0814C43.5556 78.7886 43.0662 78.6403 42.5692 78.6601C41.9966 78.6446 41.4332 78.8081 40.9561 79.1284C40.5192 79.4326 40.1936 79.8734 40.0291 80.3831C39.8513 80.9077 39.7605 81.4582 39.7603 82.0126C39.7524 82.651 39.8592 83.2855 40.0755 83.8853C40.2419 84.3791 40.5686 84.8015 41.0024 85.084C41.4335 85.3462 41.927 85.4854 42.43 85.4867C43.0024 85.4996 43.5609 85.3072 44.0061 84.9436C44.4856 84.5312 44.8124 83.9666 44.9331 83.3422Z" fill="#231F20"/>
<path d="M50.0223 77.8452H55.4454V78.8472H51.1254V81.4505H53.1278C53.7223 81.4335 54.3159 81.5061 54.8891 81.6659C55.3189 81.806 55.6884 82.0901 55.9368 82.4712C56.2008 82.88 56.3363 83.3597 56.326 83.8478C56.3288 84.2639 56.2336 84.6747 56.0479 85.0463C55.8577 85.431 55.5656 85.7552 55.2043 85.9827C54.6088 86.2656 53.951 86.3882 53.2947 86.3387H50.0223V77.8452ZM51.1254 85.3367H53.3411C53.8188 85.3752 54.2947 85.2426 54.6852 84.9621C54.8389 84.8252 54.9591 84.6542 55.0362 84.4623C55.1135 84.2706 55.1456 84.0635 55.1301 83.8571C55.141 83.5472 55.0533 83.2421 54.8799 82.9862C54.7051 82.7489 54.4519 82.5827 54.1661 82.518C53.6534 82.4166 53.1307 82.3758 52.6087 82.3962H51.1254V85.3367Z" fill="#231F20"/>
<path d="M56.1871 77.8452H57.3088L60.0343 83.033L62.4259 77.8452H63.5292L60.3864 84.4002C60.1565 84.9797 59.8442 85.5222 59.4595 86.0109C59.3133 86.145 59.1421 86.2481 58.9557 86.3141C58.7694 86.3799 58.5719 86.4074 58.3748 86.3948C58.0172 86.3817 57.6637 86.3123 57.3273 86.1888V85.2524C57.6091 85.4183 57.9283 85.5086 58.2544 85.5146C58.5102 85.5167 58.7577 85.4232 58.9496 85.2524C59.245 84.902 59.466 84.494 59.5985 84.0537L56.1871 77.8452Z" fill="#231F20"/>
<path d="M64.3542 77.8452H69.4528V85.3367H70.2038V88.3052H69.2211V86.3387H63.6589V88.3052H62.6671V85.3367H63.316C63.9926 84.3066 64.3264 82.2371 64.3264 79.1094L64.3542 77.8452ZM68.3404 78.8472H65.4295V79.2779C65.4295 79.9959 65.3648 80.9792 65.2349 82.2276C65.1529 83.2892 64.8992 84.3299 64.4841 85.3085H68.3404V78.8472Z" fill="#231F20"/>
<path d="M71.3533 86.3106V77.8828H72.4657V86.3106H71.3533Z" fill="#231F20"/>
<path d="M74.0323 86.3105V77.8828H77.1749C77.7 77.8654 78.2234 77.9545 78.7138 78.145C79.0959 78.3043 79.4196 78.5789 79.6409 78.9315C79.8489 79.2654 79.9612 79.6513 79.9653 80.0459C79.969 80.407 79.8692 80.7614 79.678 81.0665C79.4526 81.4133 79.1297 81.6839 78.7509 81.8438C79.2141 81.961 79.6253 82.2313 79.919 82.6117C80.1922 82.9817 80.3356 83.4331 80.3269 83.8946C80.329 84.2774 80.2433 84.6557 80.0765 84.9995C79.9343 85.3052 79.7251 85.5742 79.4648 85.7861C79.1873 85.9868 78.8716 86.1271 78.5377 86.1982C78.095 86.3084 77.64 86.3588 77.1842 86.348L74.0323 86.3105ZM75.1356 81.4037H76.9895C77.3448 81.4171 77.7002 81.3824 78.0463 81.3007C78.2975 81.236 78.5196 81.0875 78.6767 80.8793C78.831 80.6684 78.9095 80.4109 78.8992 80.1488C78.9014 79.8848 78.8307 79.6255 78.6953 79.3997C78.5628 79.1896 78.3581 79.0361 78.1205 78.9689C77.7052 78.8669 77.2775 78.826 76.8506 78.8473H75.154L75.1356 81.4037ZM75.1356 85.3085H77.2213C77.4743 85.3286 77.7285 85.3286 77.9815 85.3085C78.2075 85.2724 78.4247 85.1929 78.6212 85.0745C78.7985 84.9581 78.9423 84.7965 79.0383 84.6062C79.1519 84.3869 79.2094 84.1421 79.2051 83.8946C79.2108 83.6014 79.1266 83.3135 78.9641 83.0705C78.8035 82.8358 78.5678 82.6638 78.2967 82.5836C77.8988 82.4706 77.4861 82.4203 77.073 82.4338H75.154L75.1356 85.3085Z" fill="#231F20"/>
<path d="M81.5599 86.3106V77.8828H87.6134V78.8847H82.6723V81.4786H87.3075V82.4712H82.6723V85.3461H87.808V86.3481L81.5599 86.3106Z" fill="#231F20"/>
<path d="M89.6158 77.8452H94.8535V86.2731H93.7502V78.7817H90.7189V83.136C90.737 83.7876 90.6967 84.4395 90.5983 85.0838C90.5371 85.4469 90.3538 85.7777 90.0792 86.0202C89.8008 86.2593 89.4431 86.3831 89.078 86.3667C88.7828 86.3588 88.4897 86.3115 88.2065 86.2262L88.392 85.2336C88.5382 85.3001 88.6955 85.3382 88.8555 85.346C88.9659 85.3535 89.0763 85.3314 89.1756 85.2821C89.2748 85.2327 89.3594 85.1579 89.421 85.065C89.5946 84.6386 89.6614 84.1754 89.6158 83.7165V77.8452Z" fill="#231F20"/>
<path d="M96.3644 77.8452H97.4769V81.4598H99.4699C100.162 81.4173 100.855 81.5292 101.5 81.7875C101.907 81.9821 102.235 82.313 102.427 82.724C102.609 83.0834 102.705 83.4813 102.705 83.8851C102.711 84.525 102.472 85.1423 102.038 85.6082C101.698 85.8933 101.304 86.106 100.88 86.2331C100.456 86.3603 100.011 86.3993 99.572 86.348H96.3923L96.3644 77.8452ZM97.4769 85.3367H99.4978C99.7821 85.3751 100.071 85.356 100.348 85.2804C100.625 85.205 100.884 85.0743 101.111 84.8966C101.359 84.5981 101.491 84.2186 101.482 83.829C101.489 83.5197 101.394 83.2166 101.213 82.9674C101.032 82.7336 100.777 82.5713 100.49 82.5086C99.984 82.4262 99.472 82.3917 98.9601 82.4057H97.4769V85.3367Z" fill="#231F20"/>
<path d="M103.688 86.3106V77.8828H104.819V81.3568H109.176V77.8828H110.279V86.3106H109.176V82.3215H104.819V86.3106H103.688Z" fill="#231F20"/>
<path d="M111.762 77.8452H112.773V84.5501L117.223 77.8452H118.335V86.2731H117.334V79.587L112.875 86.2731H111.762V77.8452Z" fill="#231F20"/>
<path d="M119.828 77.8452H120.94V81.5909C121.32 81.6281 121.7 81.5213 122.006 81.2913C122.346 80.8647 122.612 80.3835 122.794 79.8678C122.956 79.4603 123.148 79.0659 123.369 78.6879C123.532 78.447 123.752 78.2507 124.009 78.1167C124.292 77.9583 124.612 77.8776 124.936 77.8827H125.612V78.8192H125.167C124.881 78.7997 124.598 78.8937 124.379 79.0812C124.118 79.4126 123.914 79.7862 123.777 80.1863C123.623 80.679 123.381 81.1392 123.063 81.5441C122.861 81.7362 122.625 81.8886 122.368 81.9936C123.068 82.2789 123.639 82.8159 123.971 83.5013L125.696 86.3105H124.287L122.887 84.0069C122.635 83.5343 122.323 83.0967 121.96 82.7052C121.683 82.4628 121.325 82.3356 120.959 82.3494V86.3105H119.846L119.828 77.8452Z" fill="#231F20"/>
<path d="M126.465 86.3106V77.8828H127.568V86.3106H126.465Z" fill="#231F20"/>
<path d="M129.135 86.3105V77.8826H132.277C132.803 77.8646 133.326 77.9537 133.816 78.1448C134.201 78.2992 134.526 78.5752 134.743 78.9314C134.958 79.2628 135.074 79.6498 135.077 80.0458C135.078 80.4079 134.975 80.7625 134.78 81.0665C134.57 81.4084 134.263 81.679 133.9 81.8438C134.363 81.961 134.774 82.2313 135.068 82.6117C135.345 82.9796 135.489 83.4323 135.476 83.8945C135.476 84.2762 135.394 84.6535 135.235 84.9995C135.092 85.3052 134.883 85.5742 134.623 85.7861C134.344 85.9841 134.029 86.1241 133.696 86.1982C133.256 86.3084 132.804 86.3588 132.352 86.348L129.135 86.3105ZM130.247 81.4037H132.055C132.41 81.4171 132.766 81.3824 133.112 81.3007C133.365 81.2359 133.59 81.0877 133.751 80.8792C133.899 80.6654 133.973 80.4092 133.965 80.1488C133.971 79.8844 133.9 79.6238 133.761 79.3997C133.632 79.1902 133.43 79.0366 133.195 78.9689C132.78 78.8683 132.352 78.8272 131.925 78.8473H130.247V81.4037ZM130.247 85.3085H132.333C132.583 85.3288 132.834 85.3288 133.084 85.3085C133.311 85.2755 133.528 85.1957 133.724 85.0745C133.906 84.9616 134.054 84.7994 134.15 84.6062C134.264 84.3869 134.321 84.1421 134.317 83.8945C134.323 83.6014 134.238 83.3135 134.076 83.0705C133.913 82.8379 133.678 82.6664 133.408 82.5836C133.01 82.472 132.598 82.4215 132.185 82.4338H130.247V85.3085Z" fill="#231F20"/>
<path d="M138.711 77.8452H139.833L142.558 83.033L144.95 77.8452H146.053L142.911 84.4002C142.681 84.9797 142.368 85.5222 141.983 86.0109C141.837 86.145 141.666 86.2481 141.48 86.3141C141.293 86.3799 141.096 86.4074 140.899 86.3948C140.541 86.3817 140.188 86.3123 139.851 86.1888V85.2524C140.133 85.4183 140.452 85.5086 140.778 85.5146C141.034 85.5167 141.282 85.4232 141.474 85.2524C141.769 84.902 141.99 84.494 142.123 84.0537L138.711 77.8452Z" fill="#231F20"/>
<path d="M146.656 77.8452H147.76V81.5909C148.139 81.629 148.519 81.522 148.826 81.2913C149.169 80.8659 149.438 80.3846 149.622 79.8678C149.781 79.461 149.971 79.0665 150.187 78.6879C150.357 78.4488 150.579 78.2531 150.837 78.1167C151.121 77.9583 151.44 77.8776 151.764 77.8827H152.44V78.8192H151.995C151.854 78.8079 151.711 78.8253 151.576 78.8703C151.44 78.9153 151.315 78.987 151.208 79.0812C150.943 79.4102 150.739 79.7844 150.605 80.1863C150.446 80.6774 150.205 81.1368 149.891 81.5441C149.69 81.7362 149.453 81.8886 149.197 81.9936C149.891 82.2824 150.46 82.8186 150.791 83.5013L152.515 86.3105H151.171L149.771 84.0069C149.516 83.5364 149.204 83.0991 148.843 82.7052C148.563 82.4613 148.203 82.3341 147.833 82.3494V86.3105H146.73L146.656 77.8452Z" fill="#231F20"/>
<path d="M153.108 86.3105V77.8827H156.269C156.694 77.873 157.118 77.9012 157.54 77.967C157.909 78.0198 158.264 78.1541 158.577 78.3603C158.866 78.5691 159.096 78.8498 159.244 79.175C159.42 79.5366 159.511 79.9335 159.514 80.3361C159.539 81.0273 159.291 81.7005 158.828 82.209C158.489 82.493 158.096 82.7049 157.674 82.832C157.252 82.959 156.809 82.9988 156.371 82.9488H154.23V86.3948L153.108 86.3105ZM154.22 81.8718H156.381C156.921 81.9189 157.462 81.7767 157.911 81.4692C158.062 81.3231 158.181 81.1452 158.258 80.9478C158.335 80.7504 158.368 80.5385 158.355 80.3268C158.37 79.9946 158.279 79.6661 158.095 79.3904C157.925 79.1466 157.676 78.9711 157.391 78.894C157.051 78.8325 156.706 78.8075 156.362 78.8192H154.22V81.8718Z" fill="#231F20"/>
<path d="M158.865 86.3106L162.081 77.8828H163.277L166.707 86.3106H165.447L164.463 83.7448H160.968L160.042 86.3106H158.865ZM161.285 82.8364H164.148L163.277 80.4954C163.009 79.7838 162.814 79.1938 162.683 78.735C162.573 79.2856 162.421 79.827 162.23 80.355L161.285 82.8364Z" fill="#231F20"/>
<path d="M166.373 77.3303V76.1504H167.44V77.3303H166.373ZM167.44 86.3106V77.8829H168.543V86.3106H167.44ZM168.496 77.3303V76.1504H169.572V77.3303H168.496Z" fill="#231F20"/>
<path d="M170.193 86.3106V77.8828H171.305V81.3568H175.654V77.8828H176.765V86.3106H175.654V82.3215H171.305V86.3106H170.193Z" fill="#231F20"/>
<path d="M178.277 77.8452H179.278V84.5501L183.736 77.8452H184.849V86.2731H183.839V79.587L179.38 86.2731H178.277V77.8452Z" fill="#231F20"/>
</g>
</g>
<defs>
<clipPath id="clip0_137_13">
<rect width="265" height="90" fill="white"/>
</clipPath>
</defs>
</svg>
